<?xml version="1.0" encoding="UTF-8"?>
<svg xmlns="http://www.w3.org/2000/svg" xmlns:xlink="http://www.w3.org/1999/xlink" viewBox="0 0 215.48 398.91">
  <defs>
    <style>
      .cls-1 {
        fill: url(#linear-gradient);
      }

      .cls-2 {
        fill: #2c443b;
      }

      .cls-3 {
        fill: url(#linear-gradient-4);
        mix-blend-mode: multiply;
      }

      .cls-4 {
        fill: url(#radial-gradient-11);
      }

      .cls-4, .cls-5, .cls-6, .cls-7, .cls-8, .cls-9, .cls-10, .cls-11, .cls-12, .cls-13, .cls-14 {
        opacity: .77;
      }

      .cls-5 {
        fill: url(#radial-gradient-10);
      }

      .cls-15 {
        fill: url(#radial-gradient-20);
      }

      .cls-16 {
        fill: url(#radial-gradient-21);
      }

      .cls-17 {
        fill: url(#radial-gradient-22);
      }

      .cls-18 {
        fill: url(#radial-gradient-23);
      }

      .cls-19 {
        fill: url(#radial-gradient-19);
      }

      .cls-20 {
        fill: url(#radial-gradient-18);
      }

      .cls-21 {
        fill: url(#radial-gradient-17);
      }

      .cls-22 {
        fill: url(#radial-gradient-16);
      }

      .cls-23 {
        fill: url(#radial-gradient-15);
      }

      .cls-24 {
        fill: url(#radial-gradient-12);
      }

      .cls-25 {
        fill: url(#radial-gradient-14);
      }

      .cls-26 {
        fill: url(#radial-gradient-13);
      }

      .cls-6 {
        fill: url(#radial-gradient-2);
      }

      .cls-7 {
        fill: url(#radial-gradient-7);
      }

      .cls-8 {
        fill: url(#radial-gradient-3);
      }

      .cls-9 {
        fill: url(#radial-gradient-4);
      }

      .cls-10 {
        fill: url(#radial-gradient-6);
      }

      .cls-11 {
        fill: url(#radial-gradient-9);
      }

      .cls-12 {
        fill: url(#radial-gradient-8);
      }

      .cls-13 {
        fill: url(#radial-gradient-5);
      }

      .cls-27 {
        fill: url(#linear-gradient-8);
      }

      .cls-28 {
        fill: url(#linear-gradient-9);
      }

      .cls-29 {
        fill: url(#linear-gradient-3);
      }

      .cls-30 {
        fill: url(#linear-gradient-2);
      }

      .cls-31 {
        fill: url(#linear-gradient-6);
      }

      .cls-32 {
        fill: url(#linear-gradient-7);
      }

      .cls-33 {
        fill: url(#linear-gradient-5);
      }

      .cls-14 {
        fill: url(#radial-gradient);
      }

      .cls-34 {
        fill: url(#linear-gradient-14);
      }

      .cls-35 {
        fill: url(#linear-gradient-18);
      }

      .cls-36 {
        fill: url(#linear-gradient-22);
      }

      .cls-37 {
        fill: url(#linear-gradient-20);
      }

      .cls-38 {
        fill: url(#linear-gradient-21);
      }

      .cls-39 {
        fill: url(#linear-gradient-23);
      }

      .cls-40 {
        fill: url(#linear-gradient-15);
      }

      .cls-41 {
        fill: url(#linear-gradient-19);
      }

      .cls-42 {
        fill: url(#linear-gradient-16);
      }

      .cls-43 {
        fill: url(#linear-gradient-17);
      }

      .cls-44 {
        fill: url(#linear-gradient-13);
      }

      .cls-45 {
        fill: url(#linear-gradient-12);
      }

      .cls-46 {
        fill: url(#linear-gradient-10);
      }

      .cls-47 {
        fill: url(#linear-gradient-11);
      }

      .cls-48 {
        fill: url(#linear-gradient-27);
      }

      .cls-49 {
        fill: url(#linear-gradient-24);
      }

      .cls-50 {
        fill: url(#linear-gradient-26);
      }

      .cls-51 {
        fill: url(#linear-gradient-25);
      }

      .cls-52 {
        fill: url(#linear-gradient-28);
      }

      .cls-53 {
        fill: url(#linear-gradient-29);
      }

      .cls-54 {
        isolation: isolate;
      }
    </style>
    <linearGradient id="linear-gradient" x1="73.18" y1="77.89" x2="97.88" y2="87.61" gradientUnits="userSpaceOnUse">
      <stop offset="0" stop-color="#435337"/>
      <stop offset=".92" stop-color="#98b472"/>
    </linearGradient>
    <linearGradient id="linear-gradient-2" x1="-44.15" y1="121.95" x2="-2.35" y2="168.51" gradientTransform="translate(123.39 -109.72) rotate(.56)" gradientUnits="userSpaceOnUse">
      <stop offset=".31" stop-color="#9eb275"/>
      <stop offset=".62" stop-color="#6f804f"/>
      <stop offset=".64" stop-color="#68784b"/>
      <stop offset=".69" stop-color="#576442"/>
      <stop offset=".71" stop-color="#4c573c"/>
      <stop offset=".88" stop-color="#49543b"/>
    </linearGradient>
    <radialGradient id="radial-gradient" cx="-59.58" cy="157.72" fx="-67.56" fy="170.64" r="15.18" gradientTransform="translate(-75.47 -208.37) rotate(-40.14) scale(1 1.8)" gradientUnits="userSpaceOnUse">
      <stop offset="0" stop-color="#435337"/>
      <stop offset=".89" stop-color="#67824b" stop-opacity="0"/>
    </radialGradient>
    <radialGradient id="radial-gradient-2" cx="-65.03" cy="164.79" fx="-37.89" fy="172.5" r="37.99" gradientTransform="translate(149.58 -17.53) rotate(18.6) scale(1 .59)" xlink:href="#radial-gradient"/>
    <radialGradient id="radial-gradient-3" cx="-59.95" cy="172.56" fx="-52.22" fy="172.56" r="10.82" gradientTransform="translate(151.24 -15.7) rotate(18.6) scale(1 .59)" xlink:href="#radial-gradient"/>
    <radialGradient id="radial-gradient-4" cx="-68.6" cy="169.67" fx="-57.02" fy="169.67" r="16.22" gradientTransform="translate(150.27 -14.29) rotate(18.6) scale(1 .59)" xlink:href="#radial-gradient"/>
    <radialGradient id="radial-gradient-5" cx="-36.65" cy="149.76" fx="-49.27" fy="149.76" r="15.56" gradientTransform="translate(125.77 -351.32) rotate(.56) scale(1 2.61)" xlink:href="#radial-gradient"/>
    <radialGradient id="radial-gradient-6" cx="-28.19" cy="141.57" fx="-39.42" fy="135.09" r="12.96" gradientTransform="translate(125.77 -351.21) rotate(.56) scale(1 2.71)" xlink:href="#radial-gradient"/>
    <radialGradient id="radial-gradient-7" cx="-19.05" cy="135.71" fx="-19.05" fy="135.71" r="10.17" gradientTransform="translate(126.4 -415.5) rotate(.56) scale(1 3.25)" xlink:href="#radial-gradient"/>
    <radialGradient id="radial-gradient-8" cx="-9.67" cy="130.96" fx="-16.99" fy="130.96" r="7.36" gradientTransform="translate(167.63 -498.89) rotate(5) scale(1 3.99)" xlink:href="#radial-gradient"/>
    <radialGradient id="radial-gradient-9" cx="1.31" cy="124.04" fx="-6.47" fy="124.04" r="10.17" gradientTransform="translate(124.86 -258.81) rotate(.56) scale(1 2.2)" xlink:href="#radial-gradient"/>
    <linearGradient id="linear-gradient-3" x1="-46.12" y1="148.33" x2="6.01" y2="149.29" gradientTransform="translate(123.39 -109.72) rotate(.56)" gradientUnits="userSpaceOnUse">
      <stop offset=".45" stop-color="#67824b"/>
      <stop offset=".75" stop-color="#89a566"/>
      <stop offset=".92" stop-color="#98b472"/>
    </linearGradient>
    <linearGradient id="linear-gradient-4" x1="-20.04" y1="168.91" x2="-27.03" y2="184.62" gradientTransform="translate(123.39 -109.72) rotate(.56)" gradientUnits="userSpaceOnUse">
      <stop offset="0" stop-color="#67824b"/>
      <stop offset="0" stop-color="#69844e" stop-opacity=".98"/>
      <stop offset=".15" stop-color="#97a984" stop-opacity=".68"/>
      <stop offset=".3" stop-color="#bcc8b0" stop-opacity=".44"/>
      <stop offset=".46" stop-color="#d9e0d3" stop-opacity=".24"/>
      <stop offset=".62" stop-color="#eef1eb" stop-opacity=".11"/>
      <stop offset=".79" stop-color="#fbfbfa" stop-opacity=".03"/>
      <stop offset=".99" stop-color="#fff" stop-opacity="0"/>
    </linearGradient>
    <linearGradient id="linear-gradient-5" x1="-7.36" y1="160.16" x2="-7.53" y2="167.89" gradientTransform="translate(123.39 -109.72) rotate(.56)" gradientUnits="userSpaceOnUse">
      <stop offset="0" stop-color="#67824b"/>
      <stop offset=".42" stop-color="#67824b" stop-opacity=".59"/>
      <stop offset=".99" stop-color="#67824b" stop-opacity="0"/>
    </linearGradient>
    <linearGradient id="linear-gradient-6" x1="15.71" y1="133.74" x2="17.51" y2="144.01" gradientTransform="translate(123.39 -109.72) rotate(.56)" gradientUnits="userSpaceOnUse">
      <stop offset="0" stop-color="#67824b"/>
      <stop offset=".59" stop-color="#89a566"/>
      <stop offset=".92" stop-color="#98b472"/>
    </linearGradient>
    <linearGradient id="linear-gradient-7" x1="8.42" y1="143.24" x2="11.03" y2="152.08" gradientTransform="translate(123.39 -109.72) rotate(.56)" gradientUnits="userSpaceOnUse">
      <stop offset=".14" stop-color="#67824b"/>
      <stop offset=".22" stop-color="#6c874f" stop-opacity=".89"/>
      <stop offset=".55" stop-color="#839f62" stop-opacity=".41"/>
      <stop offset=".79" stop-color="#92ae6d" stop-opacity=".11"/>
      <stop offset=".91" stop-color="#98b472" stop-opacity="0"/>
    </linearGradient>
    <linearGradient id="linear-gradient-8" x1=".7" y1="144.61" x2=".4" y2="173.79" xlink:href="#linear-gradient-5"/>
    <linearGradient id="linear-gradient-9" x1="38.94" y1="101.67" x2="23.95" y2="139.38" xlink:href="#linear-gradient-3"/>
    <radialGradient id="radial-gradient-10" cx="8.22" cy="121.58" fx="8.22" fy="121.58" r="7.66" gradientTransform="translate(125.76 -350.03) rotate(.56) scale(1 2.98)" xlink:href="#radial-gradient"/>
    <radialGradient id="radial-gradient-11" cx="-48.27" cy="157.66" fx="-55.2" fy="145.39" r="14.09" gradientTransform="translate(-49.66 -333.27) rotate(-24.86) scale(1 2.52)" xlink:href="#radial-gradient"/>
    <linearGradient id="linear-gradient-10" x1="-36.46" y1="169.79" x2="-13.62" y2="170.21" xlink:href="#linear-gradient-3"/>
    <linearGradient id="linear-gradient-11" x1="72.41" y1="464.17" x2="2.39" y2="360.64" gradientTransform="translate(37.64 -129.76) rotate(6.19)" gradientUnits="userSpaceOnUse">
      <stop offset="0" stop-color="#2c443b"/>
      <stop offset=".58" stop-color="#718a6a"/>
      <stop offset="1" stop-color="#8a9f79"/>
    </linearGradient>
    <linearGradient id="linear-gradient-12" x1="68.72" y1="436.95" x2="19.22" y2="329.86" xlink:href="#linear-gradient-11"/>
    <linearGradient id="linear-gradient-13" x1="448.22" y1="-561.09" x2="482.64" y2="-561.09" gradientTransform="translate(-111.62 926.64) rotate(-25.86)" xlink:href="#linear-gradient-11"/>
    <linearGradient id="linear-gradient-14" x1="478.03" y1="-568.88" x2="523.16" y2="-568.88" gradientTransform="translate(-111.62 926.64) rotate(-25.86)" xlink:href="#linear-gradient-11"/>
    <linearGradient id="linear-gradient-15" x1="498.63" y1="-569.22" x2="549.72" y2="-569.22" gradientTransform="translate(-111.62 926.64) rotate(-25.86)" xlink:href="#linear-gradient-11"/>
    <linearGradient id="linear-gradient-16" x1="523.56" y1="-565.33" x2="570.87" y2="-565.33" gradientTransform="translate(-111.62 926.64) rotate(-25.86)" xlink:href="#linear-gradient-11"/>
    <linearGradient id="linear-gradient-17" x1="505.9" y1="-544.18" x2="598.07" y2="-544.18" gradientTransform="translate(-111.62 926.64) rotate(-25.86)" xlink:href="#linear-gradient-11"/>
    <linearGradient id="linear-gradient-18" x1="485.49" y1="-529.33" x2="604.58" y2="-529.33" gradientTransform="translate(-111.62 926.64) rotate(-25.86)" xlink:href="#linear-gradient-11"/>
    <linearGradient id="linear-gradient-19" x1="460.95" y1="-508.65" x2="604.01" y2="-508.65" gradientTransform="translate(-111.62 926.64) rotate(-25.86)" xlink:href="#linear-gradient-11"/>
    <linearGradient id="linear-gradient-20" x1="433.28" y1="-489.42" x2="589.39" y2="-489.42" gradientTransform="translate(-111.62 926.64) rotate(-25.86)" xlink:href="#linear-gradient-11"/>
    <linearGradient id="linear-gradient-21" x1="417.67" y1="-473.99" x2="574.65" y2="-473.99" gradientTransform="translate(-111.62 926.64) rotate(-25.86)" xlink:href="#linear-gradient-11"/>
    <linearGradient id="linear-gradient-22" x1="403.11" y1="-456.41" x2="551.49" y2="-456.41" gradientTransform="translate(-111.62 926.64) rotate(-25.86)" xlink:href="#linear-gradient-11"/>
    <linearGradient id="linear-gradient-23" x1="523.56" y1="-553.74" x2="591.27" y2="-553.74" gradientTransform="translate(-111.62 926.64) rotate(-25.86)" xlink:href="#linear-gradient-11"/>
    <radialGradient id="radial-gradient-12" cx="30.86" cy="402.88" fx="30.86" fy="402.88" r="8.32" gradientTransform="translate(-1363.05 -2740.79) rotate(-24.19) scale(1 8.24)" gradientUnits="userSpaceOnUse">
      <stop offset=".05" stop-color="#a2b29d"/>
      <stop offset="1" stop-color="#718a6a" stop-opacity="0"/>
    </radialGradient>
    <radialGradient id="radial-gradient-13" cx="44.37" cy="382.34" fx="44.37" fy="382.34" r="41.71" gradientTransform="translate(37.64 -129.76) rotate(6.19)" xlink:href="#radial-gradient-12"/>
    <radialGradient id="radial-gradient-14" cx="468.01" cy="-560.46" fx="468.01" fy="-560.46" r="9.4" gradientTransform="translate(239.11 4817.98) rotate(-8) scale(1 8.17)" xlink:href="#radial-gradient-12"/>
    <radialGradient id="radial-gradient-15" cx="505.48" cy="-565.82" fx="505.48" fy="-565.82" r="9.8" gradientTransform="translate(-600.29 4830.49) rotate(2.36) scale(1 8.23)" xlink:href="#radial-gradient-12"/>
    <radialGradient id="radial-gradient-16" cx="526.24" cy="-515.19" fx="526.24" fy="-515.19" r="79.69" gradientTransform="translate(-344.39 449.87) rotate(-19.51) scale(1 .08)" xlink:href="#radial-gradient-12"/>
    <radialGradient id="radial-gradient-17" cx="545.04" cy="-528.08" fx="545.04" fy="-557.01" r="57.65" gradientTransform="translate(-328.52 481.9) rotate(-24.17) scale(1 .09)" xlink:href="#radial-gradient-12"/>
    <radialGradient id="radial-gradient-18" cx="552.38" cy="-543.04" fx="552.38" fy="-543.04" r="52.91" gradientTransform="translate(-299.21 530.21) rotate(-28.4) scale(1 .15)" xlink:href="#radial-gradient-12"/>
    <radialGradient id="radial-gradient-19" cx="508.7" cy="-484.99" fx="524.96" fy="-541.36" r="58.67" gradientTransform="translate(-311.48 534.35) rotate(-19.16) scale(1 .22)" xlink:href="#radial-gradient-12"/>
    <radialGradient id="radial-gradient-20" cx="496.51" cy="-473.99" fx="496.51" fy="-492.92" r="82.16" gradientTransform="translate(-314.03 518.35) rotate(-20.35) scale(1 .14)" xlink:href="#radial-gradient-12"/>
    <radialGradient id="radial-gradient-21" cx="477.8" cy="-457.49" fx="477.8" fy="-457.49" r="52.47" gradientTransform="translate(-111.62 926.64) rotate(-25.86)" xlink:href="#radial-gradient-12"/>
    <radialGradient id="radial-gradient-22" cx="524.17" cy="-569.22" fx="524.17" fy="-569.22" r="29.32" gradientTransform="translate(-111.62 926.64) rotate(-25.86)" xlink:href="#radial-gradient-12"/>
    <radialGradient id="radial-gradient-23" cx="547.22" cy="-565.33" fx="547.22" fy="-565.33" r="21.1" gradientTransform="translate(-111.62 926.64) rotate(-25.86)" xlink:href="#radial-gradient-12"/>
    <linearGradient id="linear-gradient-24" x1="1489.49" y1="403.68" x2="1491.37" y2="403.68" gradientTransform="translate(-1178.62 -716.4) rotate(19.24)" gradientUnits="userSpaceOnUse">
      <stop offset=".3" stop-color="#4c653d"/>
      <stop offset=".74" stop-color="#628145"/>
      <stop offset=".84" stop-color="#698745"/>
      <stop offset="1" stop-color="#7e9845"/>
      <stop offset="1" stop-color="#7f9945"/>
    </linearGradient>
    <linearGradient id="linear-gradient-25" x1="1490.64" y1="404.74" x2="1490.64" y2="404.67" gradientTransform="translate(-1178.62 -716.4) rotate(19.24)" gradientUnits="userSpaceOnUse">
      <stop offset=".08" stop-color="#4c653d"/>
      <stop offset=".23" stop-color="#628145"/>
      <stop offset=".33" stop-color="#698745"/>
      <stop offset=".49" stop-color="#7e9845"/>
      <stop offset=".49" stop-color="#7f9945"/>
      <stop offset=".82" stop-color="#a2b845"/>
    </linearGradient>
    <linearGradient id="linear-gradient-26" x1="1495.57" y1="405.01" x2="1489.87" y2="393.64" gradientTransform="translate(-1178.62 -716.4) rotate(19.24)" gradientUnits="userSpaceOnUse">
      <stop offset=".08" stop-color="#4c653d" stop-opacity="0"/>
      <stop offset=".82" stop-color="#56828b"/>
    </linearGradient>
    <linearGradient id="linear-gradient-27" x1="1496.25" y1="479.06" x2="1496.25" y2="412.5" gradientTransform="translate(-1178.62 -716.4) rotate(19.24)" gradientUnits="userSpaceOnUse">
      <stop offset="0" stop-color="#7f9945"/>
      <stop offset="0" stop-color="#7e9845"/>
      <stop offset=".23" stop-color="#698745"/>
      <stop offset=".38" stop-color="#628145"/>
      <stop offset=".92" stop-color="#4c653d"/>
    </linearGradient>
    <linearGradient id="linear-gradient-28" x1="1519.26" y1="494.53" x2="1477.17" y2="410.58" gradientTransform="translate(-1178.62 -716.4) rotate(19.24)" gradientUnits="userSpaceOnUse">
      <stop offset=".51" stop-color="#4c653d"/>
      <stop offset=".66" stop-color="#628145"/>
      <stop offset=".71" stop-color="#698545"/>
      <stop offset=".78" stop-color="#7e9145"/>
      <stop offset=".86" stop-color="#a0a445"/>
      <stop offset=".89" stop-color="#aeac45"/>
    </linearGradient>
    <linearGradient id="linear-gradient-29" x1="1507.56" y1="436.39" x2="1481.38" y2="427.03" gradientTransform="translate(-1178.62 -716.4) rotate(19.24)" gradientUnits="userSpaceOnUse">
      <stop offset=".08" stop-color="#4c653d" stop-opacity="0"/>
      <stop offset=".82" stop-color="#78828b"/>
    </linearGradient>
  </defs>
  <g class="cls-54">
    <g id="Layer_2" data-name="Layer 2">
      <g id="OBJECTS">
        <g>
          <g>
            <path class="cls-1" d="M109.37,37.44c-5.13,8.7-14.2,16.02-21.14,23.24s-14.08,14.4-18.45,23.09c-8.7,17.33-2.67,36.91,8.47,51.56,.93,1.22,3.03,.02,2.09-1.22-10.85-14.28-17.02-34.25-7.48-50.76,5.63-9.74,14.12-18.07,22-25.96,5.69-5.7,12.41-11.81,16.4-18.84,.7-1.23-1.18-2.32-1.89-1.11h0Z"/>
            <path class="cls-30" d="M77.76,75.58c.92,2.14,.86,8.28,3.71,7.6s.82-11.1,.82-11.1c0,0,2.01-.59,3.66-.36,7.66,1.06,9.77,4.51,12.12,5.48,0,0-.09-1.84-.91-3.79-1.39-3.32-10.6-3.89-10.6-3.89,0,0,1.69-1.54,5.96-2.68s14.27-1.95,18.51-1.2-2.96-4.55-16.93-1.38c0,0,6.96-3.11,18.78-4.18,11.83-1.07,13.71-.1,13.95-1.04s-5.88-2.89-13.93-1.79-15.62,2.45-15.62,2.45c0,0-.3-.98,2.86-2.34,5.93-2.54,13.26-3.89,20.83-3.81,9.69,.1,16.51,3.23,16.53,1.34s-6.81-4.08-17.45-3.95-15.63,2.92-16.34,3.38-2.6-.03,1.68-2.58,7.84-4.41,18.73-5.72,16.09-2.2,20.82-1.92,.74-3.06-5.88-2.89c-6.62,.17-9.21-.56-17.51,1.95s-9.96,3.45-10.9,2.73,.96-1.88,4.05-3.51,24.17-6.62,29.85-7.03c5.68-.42,12.07-2.24,14.66-1.27s-4.21-3.93-15.33-2.15-23.7,6.26-24.88,6.01-.92-2.14,3.1-3.04,21.82-7.82,30.33-8.21,12.07-1.54,12.54-1.77-18.73-.37-27.02,1.44c0,0,31.56-6.12,33.23-8s-27.34,.65-33.26,2.25c0,0-.63-1.64,4.38-6.55,5.01-4.91,12.68-10.66,12.69-12.08s-4.92-.57-9.85,3.77c-2.41,2.12-10.07,7.06-12.19,7.28-2.13,.22-.91-2.61-.88-5.21s.45-4.86-.24-6.52-1.28-1.25-3.49,1.52c-1.58,1.98-2.83,8.49-2.72,12.26,.05,1.86-.13,2.58-.41,2.62-.63,.08-1.75-3.16-1.93-5.01-.55-5.57,1.8-9.75,2-11.09,.06-.39-.06-1.02-.4-1.36-.58-.57-1.8-.35-3.95,3.03-4.42,6.95-4.24,20.09-5.45,22.91s-3.26,5.06-3.72,3.64-.45-5.84,.99-13.23c1.95-9.98,4.06-12.95,2.58-12.73-1.77,.26-5.62,3.39-7.41,8.67-1.55,4.57-2.88,10.27-2.31,18.65,.38,5.59-1.5,7.58-2.01,6.75-1.04-1.73-.99-3.48-.47-7.73s1.17-13.05,1.26-16.12c.14-5.11,2.46-9.9,1.52-10.15-.53-.14-4.38,1.68-6.9,7.47-2.01,4.6-2.91,12.52-2.57,18.2,.52,8.54,2.2,13.8,.77,15.21-1.43,1.4-2.12,.32-2.17-1.12s.84-9.66,.32-12.84-1.79-7.88-1.87-10.75,1.23-10.8,.63-11.6-5.04,.27-6.39,4.85-1.52,14.49-1.08,18.04,.99,8.9,1.99,13.81,.7,7.09-.02,8.03-2.59-3.75-3.95-9.2-2.81-23.48-3.74-25.62-4.86,2.89-4,11.38c1.81,17.9,5.08,23.14,5.07,24.55s-.73,1.65-1.66,.46-3.05-7.93-5.81-10.46c-2.51-2.3-5.31-6.6-5.31-6.6,0,0-6.54-14.08-7.96-14.33s-1.5,8.02,2.22,14.91c3.71,6.89,10.7,16.88,11.16,18.31s-2.84,.21-3.07-.5-11.5-14.56-15.89-17.88c-4.75-3.59-7.99-5.04-9.65-4.11s15.46,13.62,19.64,21.46c0,0,.45,1.9-3.54-.27s-16.47-7.25-29.47-7.38c-4.57-.04-7.65,.81-8.26,1.75s1.25,1.96,6.56,2.25c10.63,.58,12.74,2.02,12.96,3.44s-7.58,1.58-6.42,4.43,15.36,.15,17,1.35-5.47,3.25-2.4,3.76c3.07,.5,12.55-2,12.55-2,0,0-.73,1.65,.92,2.14s8.04-.63,11.33,1.06c0,0-3.78-.27-4.74,1.61s1.69,3.62,1.69,3.62c0,0-5.13,4.92-2.39,7.27,2.28,1.96,6.29-3.04,6.29-3.04Z"/>
            <path class="cls-14" d="M71.57,56.14c-.23-.71-11.5-14.56-15.89-17.88-4.75-3.59-7.99-5.04-9.65-4.11,0,0,6.39,2.96,10.23,7.11,3.84,4.15,12.21,13.05,14.4,17.06s4.51,7.09,4.51,7.09l-2.23-5.74-1.37-3.53Z"/>
            <path class="cls-6" d="M76.91,66.11c-3.29-1.69-9.68-.57-11.33-1.06s-.92-2.14-.92-2.14c0,0-9.48,2.51-12.55,2-3.07-.5,4.04-2.56,2.4-3.76s-15.85,1.5-17-1.35,6.65-3.01,6.42-4.43-2.34-2.86-12.96-3.44c-5.31-.29-7.17-1.31-6.56-2.25,0,0,10.77-.93,20.37,2.38,9.6,3.31,24.2,9.73,24.2,9.73l7.94,4.3Z"/>
            <path class="cls-8" d="M64.65,62.92s-9.48,2.51-12.55,2c0,0,3.46-1.65,7.67-2.72,4.21-1.07,6.62-1.22,7.98-.86l-3.11,1.58Z"/>
            <path class="cls-9" d="M62.87,59.2c-4.77-1.86-25.37,.62-25.37,.62,1.15,2.85,15.36,.15,17,1.35l8.36-1.97Z"/>
            <path class="cls-13" d="M88.62,53.23c-.72,.94-2.59-3.75-3.95-9.2s-2.81-23.48-3.74-25.62c0,0-1.88,.68-1.23,11.66,.17,2.94,1.04,16.31,5.29,25.27,2.73,5.73,5.92,5.6,5.92,5.6l-2.29-7.71Z"/>
            <path class="cls-10" d="M95.04,43.69c-.04-1.44,.84-9.66,.32-12.84s-1.79-7.88-1.87-10.75,1.23-10.8,.63-11.6c0,0-3.11-1.03-3.88,11.14-.43,6.8-1.42,23.03,6.07,35.06,0,0,1.39-1.3,1.23-3.25-.19-2.28-2.44-6.32-2.48-7.76Z"/>
            <path class="cls-7" d="M103.61,37.93c-1.04-1.73-.99-3.48-.47-7.73s1.17-13.05,1.26-16.12c.14-5.11,2.46-9.9,1.52-10.15,0,0-4.04,3.64-5.11,12.98-1.07,9.34-1.54,23.68,2.63,30.79,0,0,1.33-2.27,1.13-4.66s-.96-5.1-.96-5.1Z"/>
            <path class="cls-12" d="M111.77,29.83c-.46-1.42-.45-5.84,.99-13.23,1.95-9.98,4.06-12.95,2.58-12.73,0,0-2.73,3.4-4.95,10.75-3.6,11.92-.59,26.41-.59,26.41l3.18-3.12-1.21-8.08Z"/>
            <path class="cls-11" d="M125.22,17.7c-.63,.08-1.75-3.16-1.93-5.01-.55-5.57,1.8-9.75,2-11.09,.06-.39-.06-1.02-.4-1.36,0,0-4.2,4.59-4.2,15.56,0,8.95,2.38,12.63,2.38,12.63,.53-.62,2.62-3.14,2.99-5.3,.46-2.67-.48-4.75-.84-5.44Z"/>
            <path class="cls-29" d="M155.01,1.97c-.01,1.42-7.68,7.17-12.69,12.08-1.68,1.64-2.72,2.92-3.37,3.89-.68,1.02,.2,2.37,1.41,2.16,9.01-1.56,32.34-3.43,30.84-1.75-1.67,1.87-31.96,7.75-31.96,7.75,8.29-1.81,26.23-1.43,25.75-1.2s-5.13,1.71-13.62,2.34c-9.23,.68-19.45,4.42-27.55,7.41-3.87,1.43-5.98,3.02-4.8,3.27s13.76-4.23,24.88-6.01,17.92,3.12,15.33,2.15-8.99,.86-14.66,1.27c-5.68,.42-26.76,5.41-29.85,7.03s-4.99,2.79-4.05,3.51,2.6-.21,10.9-2.73,10.89-1.78,17.51-1.95c4.04-.1,7.1,1.1,7.79,1.99,.44,.57-.08,1.01-1.92,.9-4.72-.28-9.93,.61-20.82,1.92s-14.45,3.17-18.73,5.72-2.39,3.05-1.68,2.58,5.7-3.25,16.34-3.38,17.47,2.06,17.45,3.95-6.84-1.25-16.53-1.34c-7.58-.07-14.9,1.27-20.83,3.81-3.16,1.35-2.86,2.34-2.86,2.34,0,0,7.58-1.34,15.62-2.45s14.17,.85,13.93,1.79-2.13-.02-13.95,1.04c-11.83,1.07-18.78,4.18-18.78,4.18,10.48-2.38,17.15,0,18.04,1.03,.3,.34-.05,.53-1.11,.34-4.25-.75-14.25,.06-18.51,1.2s-5.96,2.68-5.96,2.68c0,0,9.21,.56,10.6,3.89,.81,1.95,.91,3.79,.91,3.79-1.04-.43-2.2-3.07-4.46-4.33-2.85-1.58-6.84-1.79-7.76-1.93-1.65-.25-3.56,1.15-3.56,1.15,0,0-.28-1.59,2.12-4.11s24.13-27.27,38.65-39.7C148.99,6.06,155.01,1.97,155.01,1.97Z"/>
            <path class="cls-3" d="M112.15,65.29c.45,.02-.05,.53-1.11,.34-4.25-.75-14.25,.06-18.51,1.2s-5.96,2.68-5.96,2.68h-3.23s5.35-3.07,10.33-4.05c14.21-2.8,18.21-.19,18.49-.17Z"/>
            <path class="cls-33" d="M97.3,59.7s-.3-.98,2.86-2.34c5.93-2.54,13.26-3.89,20.83-3.81,9.69,.1,16.51,3.23,16.53,1.34,0,0-5.29-2.79-17.19-2.73-11.9,.06-23.68,5.45-23.68,5.45l-5.74,3.33,6.39-1.25Z"/>
            <path class="cls-31" d="M123.82,34.67c8.1-2.99,18.32-6.74,27.55-7.41,8.5-.62,13.15-2.11,13.62-2.34,0,0-15.25,.55-25.16,2.74-9.91,2.18-23.39,6.78-23.39,6.78l-3.47,3.47,10.84-3.24Z"/>
            <path class="cls-32" d="M114.72,42.38c3.09-1.62,24.17-6.62,29.85-7.03,5.68-.42,12.07-2.24,14.66-1.27,0,0-6.51-1.9-14.3-.8-7.78,1.11-30.83,7.55-30.83,7.55l-6.36,2.13-2.56,2.85,9.54-3.43Z"/>
            <path class="cls-27" d="M105.41,51.74c4.28-2.56,7.84-4.41,18.73-5.72s16.09-2.2,20.82-1.92c1.84,.11,2.36-.33,1.92-.9,0,0-3.2-1.82-14.87-.25-6.59,.89-13.83,2.15-19.96,4.21-4.65,1.57-8.91,1.96-11.72,4.18-6.47,5.09,1.32,3.14,2.09,2.47s3.01-2.07,3.01-2.07Z"/>
            <path class="cls-28" d="M140.36,20.1c9.01-1.56,32.34-3.43,30.84-1.75,0,0-36.71,4.16-43.63,6.3,1.9-.97,4.12-1.95,6.65-2.83,2.21-.77,4.27-1.32,6.14-1.72Z"/>
            <path class="cls-5" d="M129.56,22.59c-1.07-3.56-1.53-9.94-.45-14.96,.97-4.51,2.73-6.34,2.73-6.34,.69,1.66,.27,3.92,.24,6.52-.02,1.95-.71,4.03-.16,4.85,.18,.28,.51,7.32,.17,7.74l-2.54,2.2Z"/>
            <path class="cls-4" d="M80.33,54.8c-.93-1.19-3.05-7.93-5.81-10.46-2.51-2.3-5.31-6.6-5.31-6.6,0,0-6.54-14.08-7.96-14.33,0,0,1.66,8.08,5.75,15.18,3.46,6.01,7.71,10.15,9.44,13.07,1.73,2.91,3.83,7.59,3.83,7.59l4.12,8.7s-.48-7.41-1.6-9.69-2.48-3.47-2.48-3.47Z"/>
            <path class="cls-46" d="M97.3,59.7s7.58-1.34,15.62-2.45,14.17,.85,13.93,1.79c0,0-5.87-1.86-15.13-.49s-23.3,4.96-23.3,4.96l2.5-2.57,6.39-1.25Z"/>
          </g>
          <g>
            <path class="cls-47" d="M56.45,336.55c-3.97-5.39-25.39-35.54-35.27-57.67C11.77,257.77,3.33,232.54,0,228.47c0,0,16.56,8.72,44.28,72.59,8.22,18.94,12.17,35.49,12.17,35.49Z"/>
            <path class="cls-45" d="M59.27,311.08c-2.24-4.06-17.33-28.86-22.65-46.18-10.8-35.13-14.78-65.71-14.78-65.71,0,0,14.29,28.02,19.77,43.13,19.59,54.09,17.66,68.75,17.66,68.75Z"/>
            <path class="cls-44" d="M71.07,275.88c-1.65-4.02-6.66-15.21-8.68-28.78-5.03-33.88-8.46-85.5-8.46-85.5,0,0,13.3,29.36,16.28,65.55,1.24,15.07,2.62,42.75,2.23,45.35l-1.38,3.38Z"/>
            <path class="cls-34" d="M89.15,244.83c-.93-2.86-2.22-6.45-1.8-15.84s.42-29.27,1.69-38.47c1.27-9.2,3.64-39.71,3.31-42.57,0,0,2.21,7.36,2.54,9.91s4.61,19.15,3.75,30.41c-.87,11.26-1.92,33.02-4.89,42.73-1.52,4.95-3.05,11.72-3.05,11.72l-1.54,2.1Z"/>
            <path class="cls-40" d="M103.08,226.34c-.39-2.67,4.52-33.17,7.49-46.7,1.74-7.97,7.01-22.82,8.09-26.51,1.08-3.68,1.92-7.86,1.92-7.86,0,0,.34,7.22-.11,13.45-.44,6.24-1.29,25.62-4.88,37.15-3.6,11.53-9.43,27.46-9.43,27.46l-3.07,2.99Z"/>
            <path class="cls-42" d="M120.9,205.95c1.06-2.77,11.62-10.84,18.87-26.74,7.25-15.9,8.85-24.87,8.03-26.24s.54,1.11-2.45,6.54c-7.98,14.48-24.44,46.44-24.44,46.44Z"/>
            <path class="cls-43" d="M108.14,220.11s2.36-2.11,4.64-4.02c2.29-1.91,20.81-13.46,33.06-20.04,12.25-6.58,32.96-16.94,40.95-24.99,0,0-1.48,3.68-6.56,9.59-4.2,4.89-13.59,11.38-23.6,16.72-44.05,23.49-48.5,22.75-48.5,22.75Z"/>
            <path class="cls-35" d="M94.32,238.39l3.35-4.04s13.96-11.35,47.68-25.04c26.75-10.86,56.89-21.3,56.89-21.3,0,0-25.15,17.06-42.38,23.97-17.24,6.91-65.54,26.41-65.54,26.41Z"/>
            <path class="cls-41" d="M80.61,258.54c3.8-3.45,18.86-15.06,47.44-26.21,20.88-8.14,65.51-19.61,87.43-15.68,0,0-24.73-2.2-78.85,21.64-29.1,12.81-58.19,23.61-58.19,23.61l2.17-3.36Z"/>
            <path class="cls-37" d="M63.16,293c2.87-4.12,26.68-35.95,101.92-48.13,29.9-4.84,46.35-3.07,46.35-3.07,0,0-49.97,9.22-92.49,25.53-38.62,14.82-55.48,27.09-55.48,27.09l-.3-1.42Z"/>
            <path class="cls-38" d="M58.23,317.81s12.7-24.87,62.33-41.91c49.63-17.04,83.35-15.84,83.35-15.84,0,0-51.66,14.25-87.64,31.69-21.31,10.33-47.65,20.06-57.83,28.1l-.21-2.04Z"/>
            <path class="cls-36" d="M56.32,346.57s8.9-19.74,28.44-31.42c22.6-13.51,39.63-22.22,67.87-29.82,28.23-7.6,28.58-5.63,35-5.76,0,0-23.86,8.83-35.23,12.66-11.37,3.83-75.3,30.47-94.96,55.74,0,0-1.85,2.72-1.12-1.41Z"/>
            <path class="cls-2" d="M71.89,398.64c-.81-3.32-2.91-6.13-4.29-9.24-2.08-4.7-3.56-9.68-4.84-14.64-2.38-9.2-4-18.57-4.59-28.06-.89-14.17,.26-28.52,3.75-42.3,5.63-22.18,16.49-42.49,29.38-61.25,11.33-16.49,24.89-30.83,38.77-45.16,.62-.64-.32-1.58-.98-.98-23.64,21.54-44.14,48.35-58.14,77.15-10.67,21.95-16.35,45.21-15.38,69.76,.42,10.61,1.93,21.28,4.78,31.51,1.97,7.07,4.58,19.22,11.23,23.46,.16,.1,.35-.07,.31-.24h0Z"/>
            <path class="cls-39" d="M120.9,205.95s7.92-10.5,26.73-23.79c18.8-13.29,24.32-14.84,28.43-17.64,0,0-11.42,11.52-27.99,23.54-19.39,14.06-27.17,17.9-27.17,17.9Z"/>
            <path class="cls-24" d="M23.62,269.79C14.09,245.41,0,228.47,0,228.47c3.33,4.07,11.77,29.3,21.18,50.41,9.87,22.13,31.3,52.28,35.27,57.67,0,0-27.49-53.12-32.82-66.77Z"/>
            <path class="cls-26" d="M40.78,257.43c-5.36-13.66-18.94-58.24-18.94-58.24,0,0,14.29,28.02,19.77,43.13,19.59,54.09,17.66,68.75,17.66,68.75l-18.49-53.65Z"/>
            <path class="cls-25" d="M63.19,208.98c-1.84-17.19-9.25-47.37-9.25-47.37,0,0,3.43,51.62,8.46,85.5,2.01,13.56,7.03,24.75,8.68,28.78,.43,3.91-4.83-38.39-7.88-66.91Z"/>
            <path class="cls-23" d="M92.35,147.96c.33,2.85-2.05,33.37-3.31,42.57-1.27,9.2-1.27,29.08-1.69,38.47s.87,12.98,1.8,15.84c0,0,1.67-10.62,2.34-14.79s5.19-39.62,3.78-53.39-2.92-28.7-2.92-28.7Z"/>
            <path class="cls-22" d="M215.48,216.65s-24.73-2.2-78.85,21.64c-29.1,12.81-58.19,23.61-58.19,23.61,0,0,13.39-11.03,58.03-28.06,54.68-20.86,79.02-17.19,79.02-17.19Z"/>
            <path class="cls-21" d="M202.24,188.01s-25.15,17.06-42.38,23.97c-17.24,6.91-65.54,26.41-65.54,26.41,0,0,19.31-12.51,29.02-16.28,41.5-16.13,78.9-34.09,78.9-34.09Z"/>
            <path class="cls-20" d="M186.79,171.06s-1.48,3.68-6.56,9.59c-4.2,4.89-13.59,11.38-23.6,16.72-44.05,23.49-48.5,22.75-48.5,22.75,0,0,.54-1.5,8.6-5.11,13.51-6.05,53.96-28.04,60.89-34.97s9.16-8.97,9.16-8.97Z"/>
            <path class="cls-19" d="M211.43,241.8s-49.97,9.22-92.49,25.53c-38.62,14.82-55.48,27.09-55.48,27.09,0,0,10.17-14.79,42.5-27.8,65.63-26.42,105.47-24.81,105.47-24.81Z"/>
            <path class="cls-15" d="M203.91,260.06s-33.72-1.2-83.35,15.84c-49.63,17.04-62.33,41.91-62.33,41.91,0,0,.11,.66,3.11-1.59s27.59-21.5,60.85-33.86c53.64-19.93,81.72-22.29,81.72-22.29Z"/>
            <path class="cls-16" d="M187.63,279.57c-6.42,.13-6.76-1.84-35,5.76-28.23,7.6-45.27,16.3-67.87,29.82-19.54,11.69-28.44,31.42-28.44,31.42,0,0,23.59-25.29,57.34-42.06,33.75-16.77,73.97-24.94,73.97-24.94Z"/>
            <path class="cls-17" d="M120.56,145.28s-.84,4.17-1.92,7.86c-1.08,3.68-6.34,18.54-8.09,26.51-2.96,13.53-7.88,44.03-7.49,46.7l1.96-1.91s6.12-26.48,8.17-36.7c6.76-33.78,7.36-42.45,7.36-42.45Z"/>
            <path class="cls-18" d="M120.9,205.95s16.46-31.96,24.44-46.44c2.99-5.43,1.63-7.91,2.45-6.54,0,0-1.79,7.17-5.94,17.32-8.06,19.74-20.95,35.66-20.95,35.66Z"/>
          </g>
          <g>
            <g>
              <path class="cls-49" d="M96.83,155.1c-.82,.45-1.64,.91-2.46,1.38"/>
              <path class="cls-51" d="M96.56,157.17c-.73-.23-1.46-.46-2.19-.68"/>
              <path class="cls-50" d="M103.89,147.41c-3.51,3.38-6.44,7.48-7.33,9.76-.73-.23-1.46-.46-2.19-.68"/>
              <path class="cls-48" d="M96.56,157.17c-.73-.23-1.46-.46-2.19-.68-2.63,6.66-4.87,13.47-6.7,20.39-4.44,16.76-6.53,34.19-6.09,51.79,.7-.02,1.39-.03,2.09-.05-.55-24.65,3.91-48.92,12.89-71.44Z"/>
            </g>
            <path class="cls-52" d="M81.21,237.26s-1.1-10.53-.71-21.45c.16-10.93,1.82-22.23,2.19-24.09,.47-3.92,7.87-17.89,8.79-19.67,0,0,.64-1.09,.93-.86,.13,.16-4.47,14.05-4.65,15.57-.19,.69-2.92,13.06-3.64,25.54-1.04,12.43-.07,24.97-.07,24.93-.95,0-1.89,.01-2.84,.02Z"/>
            <path class="cls-53" d="M91.48,172.06s.64-1.09,.93-.86c-.18-.11-6.28,15.02-7.39,17.46-1.32,2.31-2.33,3.07-2.33,3.06"/>
          </g>
        </g>
      </g>
    </g>
  </g>
</svg>