<?xml version="1.0" encoding="UTF-8"?>
<svg id="Layer_2" data-name="Layer 2" xmlns="http://www.w3.org/2000/svg" xmlns:xlink="http://www.w3.org/1999/xlink" viewBox="0 0 194.53 95.83">
  <defs>
    <style>
      .cls-1 {
        fill: url(#linear-gradient);
      }

      .cls-2 {
        fill: url(#radial-gradient-13);
      }

      .cls-2, .cls-3, .cls-4, .cls-5, .cls-6, .cls-7, .cls-8, .cls-9, .cls-10, .cls-11, .cls-12, .cls-13, .cls-14, .cls-15 {
        opacity: .79;
      }

      .cls-3 {
        fill: url(#radial-gradient-14);
      }

      .cls-4 {
        fill: url(#radial-gradient-12);
      }

      .cls-5 {
        fill: url(#radial-gradient-11);
      }

      .cls-6 {
        fill: url(#radial-gradient-10);
      }

      .cls-7 {
        fill: url(#radial-gradient-2);
      }

      .cls-8 {
        fill: url(#radial-gradient-9);
      }

      .cls-9 {
        fill: url(#radial-gradient-8);
      }

      .cls-10 {
        fill: url(#radial-gradient-7);
      }

      .cls-11 {
        fill: url(#radial-gradient-6);
      }

      .cls-12 {
        fill: url(#radial-gradient-5);
      }

      .cls-13 {
        fill: url(#radial-gradient-3);
      }

      .cls-14 {
        fill: url(#radial-gradient-4);
      }

      .cls-16 {
        fill: url(#linear-gradient-8);
      }

      .cls-17 {
        fill: url(#linear-gradient-9);
      }

      .cls-18 {
        fill: url(#linear-gradient-3);
      }

      .cls-19 {
        fill: url(#linear-gradient-4);
      }

      .cls-20 {
        fill: url(#linear-gradient-2);
      }

      .cls-21 {
        fill: url(#linear-gradient-6);
      }

      .cls-22 {
        fill: url(#linear-gradient-7);
      }

      .cls-23 {
        fill: url(#linear-gradient-5);
      }

      .cls-15 {
        fill: url(#radial-gradient);
      }

      .cls-24 {
        fill: url(#linear-gradient-14);
      }

      .cls-25 {
        fill: url(#linear-gradient-18);
      }

      .cls-26 {
        fill: url(#linear-gradient-22);
      }

      .cls-27 {
        fill: url(#linear-gradient-20);
      }

      .cls-28 {
        fill: url(#linear-gradient-21);
      }

      .cls-29 {
        fill: url(#linear-gradient-23);
      }

      .cls-30 {
        fill: url(#linear-gradient-15);
      }

      .cls-31 {
        fill: url(#linear-gradient-19);
      }

      .cls-32 {
        fill: url(#linear-gradient-16);
      }

      .cls-33 {
        fill: url(#linear-gradient-17);
      }

      .cls-34 {
        fill: url(#linear-gradient-13);
      }

      .cls-35 {
        fill: url(#linear-gradient-12);
      }

      .cls-36 {
        fill: url(#linear-gradient-10);
      }

      .cls-37 {
        fill: url(#linear-gradient-11);
      }

      .cls-38 {
        fill: url(#linear-gradient-27);
      }

      .cls-39 {
        fill: url(#linear-gradient-24);
      }

      .cls-40 {
        fill: url(#linear-gradient-26);
      }

      .cls-41 {
        fill: url(#linear-gradient-25);
      }

      .cls-42 {
        fill: url(#linear-gradient-28);
      }

      .cls-43 {
        fill: url(#linear-gradient-29);
      }
    </style>
    <linearGradient id="linear-gradient" x1="115" y1="40.74" x2="124.76" y2="44.58" gradientUnits="userSpaceOnUse">
      <stop offset="0" stop-color="#435337"/>
      <stop offset=".92" stop-color="#98b472"/>
    </linearGradient>
    <linearGradient id="linear-gradient-2" x1="2318.11" y1="956.53" x2="2283.22" y2="915.1" gradientTransform="translate(-368.15 -2385.09) rotate(103.41) scale(1 -1)" gradientUnits="userSpaceOnUse">
      <stop offset="0" stop-color="#67824b"/>
      <stop offset="1" stop-color="#98b472"/>
    </linearGradient>
    <radialGradient id="radial-gradient" cx="2302.81" cy="935.79" fx="2302.81" fy="935.79" r="5.68" gradientTransform="translate(-425.92 -2993.02) rotate(123.88) scale(1 -2.21)" gradientUnits="userSpaceOnUse">
      <stop offset="0" stop-color="#435337"/>
      <stop offset=".51" stop-color="#546940" stop-opacity=".52"/>
      <stop offset="1" stop-color="#67824b" stop-opacity="0"/>
    </radialGradient>
    <linearGradient id="linear-gradient-3" x1="2284.17" y1="957.56" x2="2293.19" y2="939.49" gradientTransform="translate(-368.15 -2385.09) rotate(103.41) scale(1 -1)" gradientUnits="userSpaceOnUse">
      <stop offset="0" stop-color="#67824b"/>
      <stop offset=".83" stop-color="#98b472"/>
    </linearGradient>
    <radialGradient id="radial-gradient-2" cx="2288.66" cy="946.53" fx="2288.66" fy="946.53" r="6.76" gradientTransform="translate(-1160.58 -3048.19) rotate(115.7) scale(1 -2.55)" xlink:href="#radial-gradient"/>
    <linearGradient id="linear-gradient-4" x1="2279.49" y1="976.3" x2="2262.96" y2="943.48" gradientTransform="translate(-368.15 -2385.09) rotate(103.41) scale(1 -1)" gradientUnits="userSpaceOnUse">
      <stop offset=".25" stop-color="#67824b"/>
      <stop offset=".71" stop-color="#98b472"/>
    </linearGradient>
    <radialGradient id="radial-gradient-3" cx="2269.17" cy="959.25" fx="2277.07" fy="951.6" r="18.85" gradientTransform="translate(-1925.36 -1174.14) rotate(42.8) scale(1 -.46)" xlink:href="#radial-gradient"/>
    <linearGradient id="linear-gradient-5" x1="2270.44" y1="996.67" x2="2240.46" y2="961.07" gradientTransform="translate(-368.15 -2385.09) rotate(103.41) scale(1 -1)" gradientUnits="userSpaceOnUse">
      <stop offset="0" stop-color="#67824b"/>
      <stop offset=".58" stop-color="#98b472"/>
    </linearGradient>
    <radialGradient id="radial-gradient-4" cx="2252.86" cy="977.55" fx="2272.17" fy="970.81" r="30.05" gradientTransform="translate(-1668.77 -1444.54) rotate(48.4) scale(1 -.32)" xlink:href="#radial-gradient"/>
    <linearGradient id="linear-gradient-6" x1="2257.58" y1="1013.74" x2="2242.35" y2="995.65" xlink:href="#linear-gradient-2"/>
    <radialGradient id="radial-gradient-5" cx="2249.33" cy="1002.87" fx="2249.33" fy="1002.87" r="27.97" gradientTransform="translate(-1044.08 -1945.02) rotate(69.72) scale(1 -.37)" xlink:href="#radial-gradient"/>
    <linearGradient id="linear-gradient-7" x1="2245.79" y1="1037.87" x2="2229.79" y2="1020.79" xlink:href="#linear-gradient-2"/>
    <radialGradient id="radial-gradient-6" cx="2231.57" cy="1028.72" fx="2231.57" fy="1018.47" r="24.55" gradientTransform="translate(-1034.32 -1956.6) rotate(72.86) scale(1 -.5)" gradientUnits="userSpaceOnUse">
      <stop offset="0" stop-color="#435337"/>
      <stop offset=".4" stop-color="#546940" stop-opacity=".53"/>
      <stop offset=".79" stop-color="#617b48" stop-opacity=".14"/>
      <stop offset="1" stop-color="#67824b" stop-opacity="0"/>
    </radialGradient>
    <linearGradient id="linear-gradient-8" x1="2237.39" y1="1068.34" x2="2216.65" y2="1043.71" xlink:href="#linear-gradient-2"/>
    <radialGradient id="radial-gradient-7" cx="2221.79" cy="1052.86" fx="2221.79" fy="1052.86" r="7.49" gradientTransform="translate(784.25 -4015.14) rotate(156.13) scale(1 -3.26)" gradientUnits="userSpaceOnUse">
      <stop offset="0" stop-color="#435337"/>
      <stop offset=".21" stop-color="#475939" stop-opacity=".87"/>
      <stop offset=".57" stop-color="#546940" stop-opacity=".51"/>
      <stop offset="1" stop-color="#67824b" stop-opacity="0"/>
    </radialGradient>
    <linearGradient id="linear-gradient-9" x1="2243.11" y1="1065.85" x2="2272.15" y2="1065.85" xlink:href="#linear-gradient-2"/>
    <radialGradient id="radial-gradient-8" cx="2264.55" cy="1068.32" fx="2264.55" fy="1059.63" r="24.91" gradientTransform="translate(-142.81 -2209.04) rotate(91.77) scale(1 -.34)" xlink:href="#radial-gradient-7"/>
    <linearGradient id="linear-gradient-10" x1="2257.28" y1="1048.93" x2="2281.99" y2="1034.54" xlink:href="#linear-gradient-2"/>
    <radialGradient id="radial-gradient-9" cx="2273.66" cy="1040.91" fx="2262.81" fy="1031.1" r="21.03" gradientTransform="translate(-25.76 -2303.46) rotate(103.41) scale(1 -.66)" xlink:href="#radial-gradient-7"/>
    <linearGradient id="linear-gradient-11" x1="2265.2" y1="1020.33" x2="2291.29" y2="1009.07" xlink:href="#linear-gradient-2"/>
    <radialGradient id="radial-gradient-10" cx="2280.14" cy="1014.74" fx="2271.92" fy="1001.83" r="20.97" gradientTransform="translate(-206.08 -2346.45) rotate(103.41) scale(1 -.84)" xlink:href="#radial-gradient-7"/>
    <linearGradient id="linear-gradient-12" x1="2271.61" y1="991.83" x2="2306.01" y2="991.83" gradientTransform="translate(-368.15 -2385.09) rotate(103.41) scale(1 -1)" gradientUnits="userSpaceOnUse">
      <stop offset="0" stop-color="#67824b"/>
      <stop offset=".62" stop-color="#98b472"/>
    </linearGradient>
    <radialGradient id="radial-gradient-11" cx="2288.74" cy="994.78" fx="2288.74" fy="975.39" r="20.33" gradientTransform="translate(-408.65 -2195.58) rotate(87.11) scale(1 -.36)" xlink:href="#radial-gradient-7"/>
    <linearGradient id="linear-gradient-13" x1="2282.3" y1="975.42" x2="2302.61" y2="975.42" gradientTransform="translate(-368.15 -2385.09) rotate(103.41) scale(1 -1)" gradientUnits="userSpaceOnUse">
      <stop offset="0" stop-color="#67824b"/>
      <stop offset=".68" stop-color="#98b472"/>
    </linearGradient>
    <radialGradient id="radial-gradient-12" cx="2297.09" cy="974.86" fx="2285.13" fy="974.86" r="19.08" gradientTransform="translate(-268.06 -2239.65) rotate(92.78) scale(1 -.44)" xlink:href="#radial-gradient-7"/>
    <linearGradient id="linear-gradient-14" x1="2293.71" y1="962.51" x2="2312.95" y2="962.51" gradientTransform="translate(-368.15 -2385.09) rotate(103.41) scale(1 -1)" gradientUnits="userSpaceOnUse">
      <stop offset="0" stop-color="#67824b"/>
      <stop offset=".67" stop-color="#98b472"/>
    </linearGradient>
    <radialGradient id="radial-gradient-13" cx="2303.02" cy="964.4" fx="2303.02" fy="954.22" r="10.95" gradientTransform="translate(-1192.89 -1907.22) rotate(67.8) scale(1 -.4)" xlink:href="#radial-gradient-7"/>
    <linearGradient id="linear-gradient-15" x1="2305.25" y1="949.95" x2="2323.07" y2="949.95" gradientTransform="translate(-368.15 -2385.09) rotate(103.41) scale(1 -1)" gradientUnits="userSpaceOnUse">
      <stop offset="0" stop-color="#67824b"/>
      <stop offset=".63" stop-color="#98b472"/>
    </linearGradient>
    <radialGradient id="radial-gradient-14" cx="2314.16" cy="951.52" fx="2314.16" fy="951.52" r="11.24" gradientTransform="translate(-1285.52 -1930.74) rotate(72.74) scale(1 -.68)" xlink:href="#radial-gradient-7"/>
    <linearGradient id="linear-gradient-16" x1="35.82" y1="32.29" x2="176.53" y2="87.63" xlink:href="#linear-gradient"/>
    <linearGradient id="linear-gradient-17" x1="135.48" y1="29.07" x2="150.21" y2="34.86" gradientUnits="userSpaceOnUse">
      <stop offset=".08" stop-color="#98b472"/>
      <stop offset="1" stop-color="#435337"/>
    </linearGradient>
    <linearGradient id="linear-gradient-18" x1="142.94" y1="50.03" x2="147.36" y2="51.77" xlink:href="#linear-gradient"/>
    <linearGradient id="linear-gradient-19" x1="115.56" y1="52.91" x2="118.61" y2="54.11" xlink:href="#linear-gradient"/>
    <linearGradient id="linear-gradient-20" x1="81.98" y1="35.67" x2="101.89" y2="43.5" xlink:href="#linear-gradient-17"/>
    <linearGradient id="linear-gradient-21" x1="87.1" y1="54.48" x2="94.46" y2="57.37" xlink:href="#linear-gradient"/>
    <linearGradient id="linear-gradient-22" x1="65.22" y1="59.07" x2="71.7" y2="61.62" xlink:href="#linear-gradient"/>
    <linearGradient id="linear-gradient-23" x1="56.9" y1="39.34" x2="77.99" y2="47.64" xlink:href="#linear-gradient-17"/>
    <linearGradient id="linear-gradient-24" x1="36.39" y1="50.15" x2="52.7" y2="56.57" xlink:href="#linear-gradient-17"/>
    <linearGradient id="linear-gradient-25" x1="43.37" y1="68.02" x2="51.01" y2="71.02" xlink:href="#linear-gradient"/>
    <linearGradient id="linear-gradient-26" x1="15.17" y1="59.64" x2="34.79" y2="67.36" xlink:href="#linear-gradient-17"/>
    <linearGradient id="linear-gradient-27" x1="6.23" y1="69.81" x2="21.06" y2="75.64" gradientUnits="userSpaceOnUse">
      <stop offset=".08" stop-color="#98b472"/>
      <stop offset="1" stop-color="#98b472"/>
    </linearGradient>
    <linearGradient id="linear-gradient-28" x1="17.63" y1="78.99" x2="21.72" y2="80.6" gradientUnits="userSpaceOnUse">
      <stop offset=".45" stop-color="#98b472"/>
      <stop offset=".92" stop-color="#98b472"/>
    </linearGradient>
    <linearGradient id="linear-gradient-29" x1="30.9" y1="71.84" x2="39.04" y2="75.04" xlink:href="#linear-gradient"/>
  </defs>
  <g id="OBJECTS">
    <g>
      <path class="cls-1" d="M114.85,41.16c1.64,3.17,7.56,4.36,10.62,2.99,.68-.31,.26-1.23-.35-1.28-1.86-.15-3.63,.15-5.49-.24-1.64-.34-3.12-1.2-4.77-1.47,0,0-.01,0,0,.01h0Z"/>
      <path class="cls-20" d="M16.96,75.31c1.13-1.94,.81-3.91-3.5-6.75-3.49-2.3-10.75-4.03-13.46-3.76,0,0,2.14,2.96,3.24,6.48,1.29,4.13,4.34,5.97,7.11,6.48,1.78,.33,4.88,.52,6.62-2.45Z"/>
      <path class="cls-15" d="M16.96,75.31c-1.74,2.97-4.83,2.78-6.62,2.45-2.77-.51-5.81-2.35-7.11-6.48-1.1-3.52-3.24-6.48-3.24-6.48,0,0,3.24,1.74,5.65,4.74,4.94,6.16,11.31,5.77,11.31,5.77Z"/>
      <path class="cls-18" d="M12.61,54.57c-.44,.31-.87,.94-1.25,1.74-1.14,2.41-1.82,6.34-1.03,7.64,1.06,1.73,6.09,4.58,7.31,4.87s4.54,1.82,7.05,1.31c.99-.2,2.34-1.01,3.63-1.93,2-1.43,3.82-3.1,3.82-3.1,0,0-.91-3.48-4.8-6.11-5.18-3.5-14.73-4.42-14.73-4.42Z"/>
      <path class="cls-7" d="M30.08,66.86c1.19-.96,2.06-1.76,2.06-1.76,0,0-.91-3.48-4.8-6.11-5.18-3.5-14.73-4.42-14.73-4.42-.44,.31-.87,.94-1.25,1.74,0,0-.73,2.98,7,6.3,5.66,2.44,11.19,4.67,11.72,4.24Z"/>
      <path class="cls-19" d="M50.46,56.22c-2.26-.54-6.15,1.11-7.45,1.91s-2.82,.25-4.53-1.08-16.18-12.55-15.62-18.63c.08-.82,1.82-3.06,3.49-4.5,.88-.77,1.74-1.31,2.31-1.3,1.65,.03,5.08,.29,8.1,2.3,1.33,.88,9.63,6.71,12.78,12.8,3.2,6.19,.92,8.5,.92,8.5Z"/>
      <path class="cls-13" d="M26.34,33.91c.88-.77,1.74-1.31,2.31-1.3,1.65,.03,5.08,.29,8.1,2.3,1.33,.88,9.63,6.71,12.78,12.8,3.2,6.19,.92,8.5,.92,8.5-1.1-.26-2.58,0-3.96,.41-1.47,.45-2.81-7.36-12.67-13.1-6.99-4.07-7.49-9.62-7.49-9.62Z"/>
      <path class="cls-23" d="M48.17,13.62c-1.83,.02-3.02,.62-3.96,1.42s-1.63,1.8-2.43,2.63c-1.62,1.65,1.91,6.55,4.02,9.09,2.11,2.54,11.85,16.15,13.53,19.81,1.61,3.51,3.8,4.57,6.42,3.84,2.62-.73,4.99-.44,6.6,.22,0,0,3.04-2.74-.82-8.29-1.57-2.26-2.1-7.38-4-10.4-1.49-2.37-3.32-5.25-7.76-9.98-4.44-4.73-9.41-8.36-11.59-8.33Z"/>
      <path class="cls-14" d="M44.21,15.04c.94-.8,2.14-1.4,3.96-1.42,2.18-.02,7.15,3.61,11.59,8.33,4.44,4.73,6.26,7.61,7.76,9.98,1.9,3.02,2.43,8.14,4,10.4,3.86,5.55,.82,8.29,.82,8.29,0,0-4.62-4.01-7.32-7.43-2.7-3.42-9.24-14.06-14.06-18.72-4.81-4.67-6.76-9.43-6.76-9.43Z"/>
      <path class="cls-21" d="M75.4,9.93c-1.41,3.06-1,5.33,.53,7.46,1.53,2.13,3.16,4.57,3.65,5.94,1.44,4.05,.57,7.7,1.4,13.33s2.02,9.17,3.76,9.86,4.88,.62,8.93-.99c0,0,1.29-2,.36-4.94s-3.81-14.61-6.68-17.99c-4.53-5.35-7.42-6.95-10.77-10.2-1.08-1.05-1.18-2.45-1.18-2.45Z"/>
      <path class="cls-12" d="M93.66,45.51s1.29-2,.36-4.94-3.81-14.61-6.68-17.99c-4.53-5.35-7.42-6.95-10.77-10.2-1.08-1.05-1.18-2.45-1.18-2.45,0,0-.65,3.36,1.12,5.26s6.63,7.14,7.31,12.85,3.35,11.57,5.57,13.67c3.75,3.56,4.27,3.8,4.27,3.8Z"/>
      <path class="cls-22" d="M108.5,5.66c1.69,2.03,4.16,3.87,5.26,9.84,.83,4.5,3.03,9.1,3.94,10.9,3.16,6.2,4.69,12.14,4.35,13.58s-2.29,1.85-2.29,1.85c0,0-6.6,.77-7.35,.75-5.39-.15-3.03-10.28-5.5-14.91-1.18-2.2-2.37-7.13-.81-11.48,2.74-7.63,2.4-10.51,2.4-10.51Z"/>
      <path class="cls-11" d="M119.77,41.81s1.94-.41,2.29-1.85-1.19-7.37-4.35-13.58c-.92-1.8-3.12-6.39-3.94-10.9-1.1-5.97-3.57-7.81-5.26-9.84,0,0-.97,8.42,1.02,12.73,2,4.31,1.36,8.41,2,15.02,.99,10.13,8.24,8.41,8.24,8.41Z"/>
      <path class="cls-16" d="M137.19,0c-.66,11.7,7.22,16.55,9.26,21.14,1.87,4.21,5.1,12.94,.67,17.68-.35,.38-1.62,.88-3.07,1.2-1.76,.39-3.79,.53-4.82-.1-1.87-1.16-2.39-2.95-2.43-6.3s-.16-8.89-2.01-14.54c-4.27-13.05,2.41-19.08,2.41-19.08Z"/>
      <path class="cls-10" d="M137.19,0c-.66,11.7,7.22,16.55,9.26,21.14,1.87,4.21,5.1,12.94,.67,17.68-.35,.38-1.62,.88-3.07,1.2,0,0-.39-7-2.12-12.5-1.61-5.1-6.12-10.92-6.24-17.81s1.51-9.72,1.51-9.72Z"/>
      <path class="cls-17" d="M147.32,44.99c1.26-.61,2.83-1.25,3.35,.39,.52,1.65,1.13,8.89,.01,14.41-1.11,5.52-4.84,18.56-4.62,21.92,.43,6.7,1.7,9.03,1.7,9.03,0,0-3.45-2.14-5.65-9.46-1.27-4.2-4.83-21.44-5.38-30.19-.35-5.52,2.21-5.86,4.14-6.31s6.44,.22,6.44,.22Z"/>
      <path class="cls-9" d="M147.77,90.73s-1.27-2.33-1.7-9.03c-.22-3.36,3.51-16.41,4.62-21.92,1.11-5.52,.51-12.76-.01-14.41-.52-1.65-2.09-1.01-3.35-.39,0,0-4.16,2.87-3.44,9.42,.86,7.88-.82,8.03-1.36,17.21-.55,9.19,5.26,19.12,5.26,19.12Z"/>
      <path class="cls-36" d="M119.32,46.2c1.24-.7,2.29-1.27,3.06-.01s-2.25,17.08-5.17,23.75-4.05,11.44-3.63,14.52,2.04,6.36,3.28,7.07c0,0-6.38-2.02-8.94-9-2.55-6.98,.86-15.92,1.44-18.18,1.27-4.99-.49-5.91-.42-11.76,.03-2.75,.68-5.96,5.04-6.24,4.88-.31,5.33-.14,5.33-.14Z"/>
      <path class="cls-8" d="M116.86,91.52c-1.24-.71-2.85-3.99-3.28-7.07s.71-7.85,3.63-14.52,5.94-22.49,5.17-23.75-1.82-.68-3.06,.01c0,0-3.36,2.87-3.53,11.1-.12,5.69-6.55,13.41-5.89,20.94,.66,7.53,6.97,13.28,6.97,13.28Z"/>
      <path class="cls-37" d="M92.59,50.42c.82,.03,1.75-.74,1.87,1.19s-4.4,13.26-4.69,18.98c-.29,5.72-.55,14.43,2.49,16.97,0,0-6.24-1.57-10.47-8.45-4.23-6.88-1.96-12.96-1.2-15.42,1.08-3.54,.05-9.91,4.02-12.36,2.33-1.43,7.99-.91,7.99-.91Z"/>
      <path class="cls-6" d="M92.59,50.42c.82,.03,1.75-.74,1.87,1.19s-4.4,13.26-4.69,18.98c-.29,5.72-.55,14.43,2.49,16.97,0,0-6.96-4.15-7.68-14.44-.48-6.85,.43-15.47,2.96-19.91,1.27-2.23,5.05-2.79,5.05-2.79Z"/>
      <path class="cls-35" d="M69.35,54.55c-.64-.04-1.66-.04-2.82,.09-2.29,.24-5.1,.95-6.44,2.67-2.02,2.58-3.27,7.82-2.15,14.21s2.07,10.42,5.22,13.82c3.16,3.4,5,4.61,8.08,4.85,0,0-1.26-1.9-1.58-4.37-.32-2.47,1.33-13.91,.74-19.43-.59-5.52,2.76-11.58-1.07-11.83Z"/>
      <path class="cls-5" d="M66.53,54.64c1.15-.12,2.18-.13,2.82-.09,3.83,.25,.48,6.32,1.07,11.83,.59,5.52-1.06,16.95-.74,19.43,.32,2.47,1.58,4.37,1.58,4.37,0,0-4.28-.82-6.24-9.04-4.07-17.03,1.52-26.51,1.52-26.51Z"/>
      <path class="cls-34" d="M48.75,60.64c-.83,.02-2.26,.56-3.68,1.29-1.8,.92-3.59,2.15-4.12,2.98-.95,1.5-1.64,1.71-.64,5.6s1.97,11.82,4.02,14.51,5.1,4.12,10.22,4.96c0,0,.68-3.76-.43-6.56-1.11-2.79-1.13-2.47-1.25-5.35s-.18-17.52-4.12-17.44Z"/>
      <path class="cls-4" d="M45.07,61.93c1.42-.73,2.85-1.27,3.68-1.29,3.95-.08,4,14.56,4.12,17.44s.14,2.56,1.25,5.35c1.11,2.79,.43,6.56,.43,6.56,0,0-5.33-2.5-7.12-8.28-1.79-5.78-2.36-19.78-2.36-19.78Z"/>
      <path class="cls-24" d="M32.37,68.41c1.39,.49,2.6,1.05,4.61,6.59,2.01,5.54,2.55,4.86,2.3,8.19s.22,6.08,.22,6.08c0,0-.75,.9-4.63-.67s-6.64-8.47-6.41-9.65c0,0-1.46-.4-1.86-1.9s.36-4,1.87-5.36,3.9-3.27,3.9-3.27Z"/>
      <path class="cls-2" d="M39.5,89.26s-.47-2.75-.22-6.08-.28-2.65-2.3-8.19c-2.01-5.54-3.23-6.09-4.61-6.59,0,0-2.26,4.3-.66,9.21,2.1,6.43,7.79,11.64,7.79,11.64Z"/>
      <path class="cls-30" d="M19.27,77.46c-1.87,1.15-5.27,3.26-5.22,5.37,.16,7.08,5.68,9.57,6.44,10.58,.76,1.02,.26,2.41,.26,2.41,0,0,3.04-2.21,3.44-5.63s-.71-10.39-2.6-11.93-2.32-.8-2.32-.8Z"/>
      <path class="cls-3" d="M20.76,95.83s3.04-2.21,3.44-5.63-.71-10.39-2.6-11.93-2.32-.8-2.32-.8c0,0-1.83,1.29-1.26,3.92s2.68,6.58,3.16,8.77c.62,2.82-.42,5.67-.42,5.67Z"/>
      <path class="cls-32" d="M18.93,76.25c14.09-8.48,28.41-15.97,44.14-20.96,13.72-4.36,27.81-6.78,42.09-8.39s28.1-2.68,42.1-4.54c7.43-.99,14.71-1.58,22.19-.86,8.01,.77,15.75,2.9,23.64,4.36,1.45,.27,2.08-1.86,.62-2.24-15.15-3.9-29.53-5.47-45.07-3.32-14.95,2.07-30.01,3.19-44.99,5.03-30.45,3.74-60.25,11.44-85.11,30.24-.4,.3-.05,.97,.4,.69h0Z"/>
      <path class="cls-33" d="M138.31,21.63c.7,2.59,2.08,4.93,2.88,7.51s1.11,5.28,1.6,7.97c.53,2.96,1.71,5.53,5.08,4.98,.97-.16,.69-1.62-.22-1.66-4.02-.15-4.63-9.41-5.61-12.22-.83-2.38-1.73-4.85-3.43-6.74-.12-.13-.34,0-.29,.17h0Z"/>
      <path class="cls-25" d="M143.69,61.41c1.35-2.12,1.36-4.51,1.37-6.97,.02-3.31-.81-10.74,3.04-12.43,.85-.37,.12-1.63-.73-1.25-2.75,1.22-3.04,4.27-3.36,6.99-.53,4.51-.08,9.01-.69,13.55-.03,.21,.27,.25,.37,.1h0Z"/>
      <path class="cls-31" d="M114.62,64.67c3.11-6.14-.17-17.5,7.97-20.28,.54-.18,.49-1.09-.14-1.05-8.46,.49-7.32,15.57-8.25,21.15-.04,.24,.3,.43,.42,.18h0Z"/>
      <path class="cls-27" d="M83.87,30.52c-.02,4.48,3.43,9.55,6.3,12.78,2.55,2.87,6.89,5.67,10.79,3.98,.66-.29,.3-1.31-.35-1.31-1.96,.01-3.56,.13-5.42-.66-2.24-.96-3.91-2.81-5.39-4.68-2.51-3.19-4.04-6.39-5.51-10.15-.08-.21-.41-.2-.41,.06h0Z"/>
      <path class="cls-28" d="M98.6,46.69c-3.96-.56-8.09,2.63-10.46,5.56-3.04,3.76-4.43,8.78-3.36,13.52,.06,.28,.45,.19,.47-.06,.34-4.2,.95-8.27,3.39-11.82,2.64-3.83,6.23-4.71,9.99-6.9,.11-.06,.11-.28-.04-.3h0Z"/>
      <path class="cls-26" d="M75.97,50.51c-4.41-.25-8.77,3.81-10.78,7.46-2.18,3.98-2.71,8.66-1.8,13.07,.05,.26,.5,.21,.47-.06-.47-3.75,.41-8.07,1.99-11.5,2.22-4.81,6.11-6.07,10.18-8.71,.11-.07,.07-.24-.07-.25h0Z"/>
      <path class="cls-29" d="M58.84,34.37c1.79,4.98,5.3,9.12,8.99,12.84,2.27,2.29,5.98,6.71,9.41,3.86,.54-.45-.04-1.29-.66-1.13-3.85,1.03-8.04-4.17-10.58-6.67-2.72-2.69-5.04-5.69-6.99-8.97-.05-.09-.2-.03-.17,.07h0Z"/>
      <path class="cls-39" d="M37.68,46.76c1.81,1.68,3.46,3.48,4.81,5.56,.95,1.45,1.72,3.03,2.84,4.37,1.74,2.09,4.3,3.48,6.95,2.35,.66-.28,.31-1.35-.36-1.32-4.28,.19-6.25-2.8-8.45-5.97-1.52-2.2-3.28-3.9-5.63-5.2-.13-.07-.28,.1-.16,.21h0Z"/>
      <path class="cls-41" d="M49.4,59.17c-8.94-1.01-3.83,17.68-2.51,21.32,.14,.39,.81,.37,.77-.1-.49-5.94-4.61-17.09,1.8-20.98,.12-.07,.06-.22-.06-.24h0Z"/>
      <path class="cls-40" d="M14.72,60.7c1.76,2.09,5.32,3.05,7.79,4.04,4.01,1.59,8.97,4.42,13.07,1.73,.54-.35,.21-1.36-.47-1.11-5.97,2.27-14.8-2.08-20.22-4.89-.15-.08-.29,.1-.18,.23h0Z"/>
      <path class="cls-38" d="M5.97,70.28c1.41,2.92,5.58,4.21,8.45,5.05s5.26,.8,7.57-1.22c.29-.25-.02-.82-.39-.67-2.75,1.09-4.39,1.42-7.45,.69s-5.44-2.09-7.9-4.07c-.15-.12-.37,.03-.28,.21h0Z"/>
      <path class="cls-42" d="M21.86,73.76c-1.99,.6-3.24,1.82-4.04,3.73-1.12,2.67,.41,6.13,1.17,8.73,.19,.65,1.18,.38,1.02-.28-.59-2.39-1.96-5.17-1.39-7.61,.5-2.13,2.05-2.84,3.35-4.38,.07-.08,0-.22-.11-.19h0Z"/>
      <path class="cls-43" d="M38.47,63.83c-3.94,1.35-7.06,3.78-7.61,8.07-.6,4.63,1.16,9.19,4.27,12.57,.36,.39,.89-.17,.57-.57-2.4-2.94-3.92-6.32-3.96-10.18-.05-5.24,2.96-6.93,6.85-9.61,.14-.09,.06-.34-.12-.28h0Z"/>
    </g>
  </g>
</svg>