<?xml version="1.0" encoding="UTF-8"?>
<svg id="Layer_2" data-name="Layer 2" xmlns="http://www.w3.org/2000/svg" xmlns:xlink="http://www.w3.org/1999/xlink" viewBox="0 0 179.07 210.81">
  <defs>
    <style>
      .cls-1 {
        fill: url(#linear-gradient);
      }

      .cls-2 {
        fill: #2c443b;
      }

      .cls-3 {
        fill: url(#radial-gradient-10);
      }

      .cls-4 {
        fill: url(#radial-gradient-11);
      }

      .cls-5 {
        fill: url(#radial-gradient-12);
      }

      .cls-6 {
        fill: url(#radial-gradient-6);
      }

      .cls-7 {
        fill: url(#radial-gradient-5);
      }

      .cls-8 {
        fill: url(#radial-gradient-3);
      }

      .cls-9 {
        fill: url(#radial-gradient-4);
      }

      .cls-10 {
        fill: url(#radial-gradient-9);
      }

      .cls-11 {
        fill: url(#radial-gradient-8);
      }

      .cls-12 {
        fill: url(#radial-gradient-7);
      }

      .cls-13 {
        fill: url(#radial-gradient-2);
      }

      .cls-14 {
        fill: url(#linear-gradient-8);
      }

      .cls-15 {
        fill: url(#linear-gradient-9);
      }

      .cls-16 {
        fill: url(#linear-gradient-3);
      }

      .cls-17 {
        fill: url(#linear-gradient-4);
      }

      .cls-18 {
        fill: url(#linear-gradient-2);
      }

      .cls-19 {
        fill: url(#linear-gradient-6);
      }

      .cls-20 {
        fill: url(#linear-gradient-7);
      }

      .cls-21 {
        fill: url(#linear-gradient-5);
      }

      .cls-22 {
        fill: url(#radial-gradient);
      }

      .cls-23 {
        fill: url(#linear-gradient-14);
      }

      .cls-24 {
        fill: url(#linear-gradient-18);
      }

      .cls-25 {
        fill: url(#linear-gradient-22);
      }

      .cls-26 {
        fill: url(#linear-gradient-20);
      }

      .cls-27 {
        fill: url(#linear-gradient-21);
      }

      .cls-28 {
        fill: url(#linear-gradient-23);
      }

      .cls-29 {
        fill: url(#linear-gradient-15);
      }

      .cls-30 {
        fill: url(#linear-gradient-19);
      }

      .cls-31 {
        fill: url(#linear-gradient-16);
      }

      .cls-32 {
        fill: url(#linear-gradient-17);
      }

      .cls-33 {
        fill: url(#linear-gradient-13);
      }

      .cls-34 {
        fill: url(#linear-gradient-12);
      }

      .cls-35 {
        fill: url(#linear-gradient-10);
      }

      .cls-36 {
        fill: url(#linear-gradient-11);
      }

      .cls-37 {
        fill: url(#linear-gradient-27);
      }

      .cls-38 {
        fill: url(#linear-gradient-24);
      }

      .cls-39 {
        fill: url(#linear-gradient-26);
      }

      .cls-40 {
        fill: url(#linear-gradient-25);
      }
    </style>
    <linearGradient id="linear-gradient" x1="-2211.45" y1="215.98" x2="-2269.64" y2="129.95" gradientTransform="translate(-2092.32 184.98) rotate(173.81) scale(1 -1)" gradientUnits="userSpaceOnUse">
      <stop offset="0" stop-color="#2c443b"/>
      <stop offset=".58" stop-color="#718a6a"/>
      <stop offset="1" stop-color="#8a9f79"/>
    </linearGradient>
    <linearGradient id="linear-gradient-2" x1="-2214.52" y1="193.36" x2="-2255.65" y2="104.37" xlink:href="#linear-gradient"/>
    <linearGradient id="linear-gradient-3" x1="-1653.32" y1="-379.92" x2="-1624.71" y2="-379.92" gradientTransform="translate(-1513.48 -311.91) rotate(-154.14) scale(1 -1)" xlink:href="#linear-gradient"/>
    <linearGradient id="linear-gradient-4" x1="-1628.54" y1="-386.39" x2="-1591.04" y2="-386.39" gradientTransform="translate(-1513.48 -311.91) rotate(-154.14) scale(1 -1)" xlink:href="#linear-gradient"/>
    <linearGradient id="linear-gradient-5" x1="-1611.42" y1="-386.67" x2="-1568.97" y2="-386.67" gradientTransform="translate(-1513.48 -311.91) rotate(-154.14) scale(1 -1)" xlink:href="#linear-gradient"/>
    <linearGradient id="linear-gradient-6" x1="-1590.7" y1="-383.44" x2="-1551.39" y2="-383.44" gradientTransform="translate(-1513.48 -311.91) rotate(-154.14) scale(1 -1)" xlink:href="#linear-gradient"/>
    <linearGradient id="linear-gradient-7" x1="-1605.38" y1="-365.86" x2="-1528.78" y2="-365.86" gradientTransform="translate(-1513.48 -311.91) rotate(-154.14) scale(1 -1)" xlink:href="#linear-gradient"/>
    <linearGradient id="linear-gradient-8" x1="-1622.34" y1="-353.53" x2="-1523.37" y2="-353.53" gradientTransform="translate(-1513.48 -311.91) rotate(-154.14) scale(1 -1)" xlink:href="#linear-gradient"/>
    <linearGradient id="linear-gradient-9" x1="-1642.74" y1="-336.34" x2="-1523.85" y2="-336.34" gradientTransform="translate(-1513.48 -311.91) rotate(-154.14) scale(1 -1)" xlink:href="#linear-gradient"/>
    <linearGradient id="linear-gradient-10" x1="-1665.73" y1="-320.36" x2="-1536" y2="-320.36" gradientTransform="translate(-1513.48 -311.91) rotate(-154.14) scale(1 -1)" xlink:href="#linear-gradient"/>
    <linearGradient id="linear-gradient-11" x1="-1678.7" y1="-307.54" x2="-1548.24" y2="-307.54" gradientTransform="translate(-1513.48 -311.91) rotate(-154.14) scale(1 -1)" xlink:href="#linear-gradient"/>
    <linearGradient id="linear-gradient-12" x1="-1690.8" y1="-292.93" x2="-1567.49" y2="-292.93" gradientTransform="translate(-1513.48 -311.91) rotate(-154.14) scale(1 -1)" xlink:href="#linear-gradient"/>
    <linearGradient id="linear-gradient-13" x1="-1590.7" y1="-373.81" x2="-1534.44" y2="-373.81" gradientTransform="translate(-1513.48 -311.91) rotate(-154.14) scale(1 -1)" xlink:href="#linear-gradient"/>
    <radialGradient id="radial-gradient" cx="-2245.98" cy="165.05" fx="-2245.98" fy="165.05" r="6.91" gradientTransform="translate(-1333.37 -2053.45) rotate(-155.81) scale(1 -8.24)" gradientUnits="userSpaceOnUse">
      <stop offset=".05" stop-color="#a2b29d"/>
      <stop offset="1" stop-color="#718a6a" stop-opacity="0"/>
    </radialGradient>
    <radialGradient id="radial-gradient-2" cx="-2234.75" cy="147.98" fx="-2234.75" fy="147.98" r="34.66" gradientTransform="translate(-2092.32 184.98) rotate(173.81) scale(1 -1)" xlink:href="#radial-gradient"/>
    <radialGradient id="radial-gradient-3" cx="-1636.87" cy="-379.39" fx="-1636.87" fy="-379.39" r="7.81" gradientTransform="translate(-1927.48 2902.39) rotate(-172) scale(1 -8.17)" xlink:href="#radial-gradient"/>
    <radialGradient id="radial-gradient-4" cx="-1605.73" cy="-383.85" fx="-1605.73" fy="-383.85" r="8.15" gradientTransform="translate(-1375.41 3266.53) rotate(177.64) scale(1 -8.23)" xlink:href="#radial-gradient"/>
    <radialGradient id="radial-gradient-5" cx="-1588.47" cy="-341.77" fx="-1588.47" fy="-341.77" r="66.22" gradientTransform="translate(-1441.77 -430.33) rotate(-160.49) scale(1 -.08)" xlink:href="#radial-gradient"/>
    <radialGradient id="radial-gradient-6" cx="-1572.86" cy="-352.49" fx="-1572.86" fy="-376.53" r="47.9" gradientTransform="translate(-1392.83 -557.04) rotate(-155.83) scale(1 -.09)" xlink:href="#radial-gradient"/>
    <radialGradient id="radial-gradient-7" cx="-1566.75" cy="-364.92" fx="-1566.75" fy="-364.92" r="43.97" gradientTransform="translate(-1348.29 -654.68) rotate(-151.6) scale(1 -.15)" xlink:href="#radial-gradient"/>
    <radialGradient id="radial-gradient-8" cx="-1603.06" cy="-316.68" fx="-1589.54" fy="-363.52" r="48.76" gradientTransform="translate(-1469.54 -359.16) rotate(-160.84) scale(1 -.22)" xlink:href="#radial-gradient"/>
    <radialGradient id="radial-gradient-9" cx="-1613.18" cy="-307.54" fx="-1613.18" fy="-323.27" r="68.28" gradientTransform="translate(-1455.17 -405.66) rotate(-159.65) scale(1 -.14)" xlink:href="#radial-gradient"/>
    <radialGradient id="radial-gradient-10" cx="-1628.73" cy="-293.83" fx="-1628.73" fy="-293.83" r="43.61" gradientTransform="translate(-1513.48 -311.91) rotate(-154.14) scale(1 -1)" xlink:href="#radial-gradient"/>
    <radialGradient id="radial-gradient-11" cx="-1590.2" cy="-386.67" fx="-1590.2" fy="-386.67" r="24.36" gradientTransform="translate(-1513.48 -311.91) rotate(-154.14) scale(1 -1)" xlink:href="#radial-gradient"/>
    <radialGradient id="radial-gradient-12" cx="-1571.05" cy="-383.44" fx="-1571.05" fy="-383.44" r="17.54" gradientTransform="translate(-1513.48 -311.91) rotate(-154.14) scale(1 -1)" xlink:href="#radial-gradient"/>
    <linearGradient id="linear-gradient-14" x1="1322.51" y1="-310.84" x2="1344.83" y2="-310.84" gradientTransform="translate(-1299.35 352.58) rotate(.91)" gradientUnits="userSpaceOnUse">
      <stop offset="0" stop-color="#f4d54b"/>
      <stop offset=".49" stop-color="#f4a544"/>
      <stop offset=".57" stop-color="#f49f44"/>
      <stop offset=".68" stop-color="#f48f44"/>
      <stop offset=".76" stop-color="#f48044"/>
      <stop offset=".86" stop-color="#d36f44"/>
      <stop offset=".96" stop-color="#a95144"/>
    </linearGradient>
    <linearGradient id="linear-gradient-15" x1="1313.69" y1="-301.94" x2="1338.11" y2="-301.94" xlink:href="#linear-gradient-14"/>
    <linearGradient id="linear-gradient-16" x1="1323.84" y1="-299.25" x2="1341.37" y2="-293.83" gradientTransform="translate(-1299.35 352.58) rotate(.91)" gradientUnits="userSpaceOnUse">
      <stop offset="0" stop-color="#f4d54b"/>
      <stop offset=".49" stop-color="#f4a544"/>
      <stop offset=".57" stop-color="#f49f44"/>
      <stop offset=".68" stop-color="#f48f44"/>
      <stop offset=".76" stop-color="#f48044"/>
      <stop offset=".86" stop-color="#d36f44"/>
      <stop offset="1" stop-color="#a95144"/>
    </linearGradient>
    <linearGradient id="linear-gradient-17" x1="1342.48" y1="-295.32" x2="1364.7" y2="-295.32" gradientTransform="translate(-1299.35 352.58) rotate(.91)" gradientUnits="userSpaceOnUse">
      <stop offset=".3" stop-color="#4c653d"/>
      <stop offset=".74" stop-color="#628145"/>
      <stop offset=".84" stop-color="#698745"/>
      <stop offset="1" stop-color="#7e9845"/>
      <stop offset="1" stop-color="#7f9945"/>
    </linearGradient>
    <linearGradient id="linear-gradient-18" x1="1355.92" y1="-308" x2="1370.54" y2="-337.22" gradientTransform="translate(-1299.35 352.58) rotate(.91)" gradientUnits="userSpaceOnUse">
      <stop offset=".04" stop-color="#a95144"/>
      <stop offset=".14" stop-color="#d36f44"/>
      <stop offset=".24" stop-color="#f48044"/>
      <stop offset=".32" stop-color="#f48f44"/>
      <stop offset=".43" stop-color="#f49f44"/>
      <stop offset=".51" stop-color="#f4a544"/>
      <stop offset="1" stop-color="#f4d54b"/>
    </linearGradient>
    <linearGradient id="linear-gradient-19" x1="1338.89" y1="-319.51" x2="1350.34" y2="-319.51" gradientTransform="translate(-1299.35 352.58) rotate(.91)" gradientUnits="userSpaceOnUse">
      <stop offset=".2" stop-color="#6871b6"/>
      <stop offset=".89" stop-color="#3c578e"/>
    </linearGradient>
    <linearGradient id="linear-gradient-20" x1="1346.64" y1="-311.35" x2="1367.21" y2="-333.17" gradientTransform="translate(-1299.35 352.58) rotate(.91)" gradientUnits="userSpaceOnUse">
      <stop offset=".04" stop-color="#a95144"/>
      <stop offset=".14" stop-color="#d36f44"/>
      <stop offset=".34" stop-color="#f48044"/>
      <stop offset=".39" stop-color="#f48f44"/>
      <stop offset=".46" stop-color="#f49f44"/>
      <stop offset=".51" stop-color="#f4a544"/>
      <stop offset="1" stop-color="#f4d54b"/>
    </linearGradient>
    <linearGradient id="linear-gradient-21" x1="1344.86" y1="-320.91" x2="1350.41" y2="-320.91" xlink:href="#linear-gradient-14"/>
    <linearGradient id="linear-gradient-22" x1="1348.8" y1="-315.2" x2="1376.08" y2="-315.2" xlink:href="#linear-gradient-19"/>
    <linearGradient id="linear-gradient-23" x1="1359.94" y1="-277.91" x2="1359.94" y2="-316.41" gradientTransform="translate(-1299.35 352.58) rotate(.91)" gradientUnits="userSpaceOnUse">
      <stop offset=".08" stop-color="#4c653d"/>
      <stop offset=".23" stop-color="#628145"/>
      <stop offset=".33" stop-color="#698745"/>
      <stop offset=".49" stop-color="#7e9845"/>
      <stop offset=".49" stop-color="#7f9945"/>
      <stop offset=".82" stop-color="#a2b845"/>
    </linearGradient>
    <linearGradient id="linear-gradient-24" x1="1367.61" y1="-284.68" x2="1352.71" y2="-314.41" gradientTransform="translate(-1299.35 352.58) rotate(.91)" gradientUnits="userSpaceOnUse">
      <stop offset=".08" stop-color="#4c653d" stop-opacity="0"/>
      <stop offset=".82" stop-color="#ff828b"/>
    </linearGradient>
    <linearGradient id="linear-gradient-25" x1="1349.27" y1="-204.73" x2="1349.27" y2="-271.29" gradientTransform="translate(-1299.35 352.58) rotate(.91)" gradientUnits="userSpaceOnUse">
      <stop offset="0" stop-color="#7f9945"/>
      <stop offset="0" stop-color="#7e9845"/>
      <stop offset=".23" stop-color="#698745"/>
      <stop offset=".38" stop-color="#628145"/>
      <stop offset=".92" stop-color="#4c653d"/>
    </linearGradient>
    <linearGradient id="linear-gradient-26" x1="1372.28" y1="-189.26" x2="1330.19" y2="-273.21" gradientTransform="translate(-1299.35 352.58) rotate(.91)" gradientUnits="userSpaceOnUse">
      <stop offset=".51" stop-color="#4c653d"/>
      <stop offset=".66" stop-color="#628145"/>
      <stop offset=".71" stop-color="#698545"/>
      <stop offset=".78" stop-color="#7e9145"/>
      <stop offset=".86" stop-color="#a0a445"/>
      <stop offset=".89" stop-color="#aeac45"/>
    </linearGradient>
    <linearGradient id="linear-gradient-27" x1="1360.57" y1="-247.4" x2="1334.4" y2="-256.76" xlink:href="#linear-gradient-24"/>
  </defs>
  <g id="OBJECTS">
    <g>
      <g>
        <path class="cls-1" d="M132.16,158.96c3.3-4.48,21.1-29.54,29.31-47.93,7.83-17.54,14.84-38.51,17.6-41.89,0,0-13.76,7.24-36.8,60.33-6.83,15.74-10.11,29.49-10.11,29.49Z"/>
        <path class="cls-18" d="M129.81,137.78c1.86-3.38,14.4-23.98,18.82-38.38,8.97-29.19,12.28-54.6,12.28-54.6,0,0-11.88,23.29-16.43,35.85-16.28,44.95-14.68,57.13-14.68,57.13Z"/>
        <path class="cls-16" d="M120.01,108.54c1.37-3.34,5.54-12.64,7.21-23.91,4.18-28.15,7.03-71.05,7.03-71.05,0,0-11.05,24.4-13.53,54.47-1.03,12.53-2.18,35.53-1.85,37.69l1.14,2.81Z"/>
        <path class="cls-17" d="M104.98,82.73c.78-2.38,1.85-5.36,1.5-13.16-.35-7.8-.35-24.32-1.4-31.97-1.05-7.64-3.03-33-2.75-35.37,0,0-1.84,6.12-2.11,8.24s-3.83,15.91-3.11,25.27c.72,9.36,1.59,27.44,4.06,35.51,1.26,4.11,2.54,9.74,2.54,9.74l1.28,1.75Z"/>
        <path class="cls-21" d="M93.41,67.36c.33-2.22-3.76-27.56-6.22-38.81-1.45-6.62-5.82-18.97-6.72-22.03s-1.59-6.53-1.59-6.53c0,0-.28,6,.09,11.18,.37,5.18,1.07,21.29,4.06,30.88,2.99,9.58,7.84,22.82,7.84,22.82l2.55,2.49Z"/>
        <path class="cls-19" d="M78.59,50.42c-.88-2.31-9.65-9.01-15.68-22.22-6.03-13.21-7.35-20.67-6.67-21.81s-.45,.92,2.04,5.43c6.63,12.03,20.31,38.59,20.31,38.59Z"/>
        <path class="cls-20" d="M89.2,62.19s-1.96-1.75-3.86-3.34c-1.9-1.59-17.29-11.19-27.47-16.66-10.18-5.47-27.39-14.08-34.03-20.77,0,0,1.23,3.06,5.45,7.97,3.49,4.06,11.29,9.46,19.61,13.9,36.6,19.52,40.3,18.9,40.3,18.9Z"/>
        <path class="cls-14" d="M100.69,77.38l-2.78-3.35s-11.6-9.43-39.62-20.81c-22.23-9.02-47.28-17.7-47.28-17.7,0,0,20.9,14.18,35.22,19.92s54.47,21.95,54.47,21.95Z"/>
        <path class="cls-15" d="M112.08,94.12c-3.15-2.87-15.67-12.52-39.42-21.78C55.31,65.58,18.21,56.04,0,59.31c0,0,20.55-1.83,65.53,17.98,24.18,10.65,48.36,19.62,48.36,19.62l-1.8-2.79Z"/>
        <path class="cls-35" d="M126.58,122.76c-2.39-3.43-22.17-29.88-84.69-40-24.85-4.02-38.52-2.55-38.52-2.55,0,0,41.53,7.66,76.86,21.22,32.1,12.32,46.11,22.51,46.11,22.51l.25-1.18Z"/>
        <path class="cls-36" d="M130.68,143.38s-10.56-20.67-51.8-34.82c-41.24-14.16-69.26-13.16-69.26-13.16,0,0,42.93,11.84,72.83,26.33,17.71,8.58,39.6,16.67,48.06,23.35l.17-1.7Z"/>
        <path class="cls-34" d="M132.27,167.28s-7.4-16.4-23.64-26.11c-18.78-11.23-32.94-18.47-56.4-24.78-23.46-6.31-23.75-4.68-29.08-4.79,0,0,19.82,7.34,29.27,10.52,9.45,3.18,62.57,25.32,78.91,46.33,0,0,1.53,2.26,.93-1.17Z"/>
        <path class="cls-2" d="M119.6,210.78c4.83-2.57,6.91-11.05,8.45-15.92,2.26-7.15,3.69-14.52,4.48-21.97,1.38-13.1,.67-26.57-2.45-39.38-4.53-18.64-13.88-36.39-24.8-52.02-9.67-13.85-20.85-27.28-33.4-38.59-.66-.59-1.6,.33-.98,.98,21.72,22.73,42.12,46.63,52.93,76.64,3.84,10.67,6.18,21.69,6.78,33.04,.55,10.33-.26,20.72-2.42,30.83-1,4.7-2.18,9.39-3.74,13.94-1.41,4.08-4.5,8.01-5.15,12.22-.03,.18,.14,.33,.31,.24h0Z"/>
        <path class="cls-33" d="M78.59,50.42s-6.58-8.73-22.21-19.77-20.21-12.34-23.63-14.66c0,0,9.49,9.58,23.26,19.56,16.12,11.69,22.58,14.87,22.58,14.87Z"/>
        <path class="cls-22" d="M159.44,103.47c7.93-20.26,19.63-34.34,19.63-34.34-2.77,3.39-9.78,24.35-17.6,41.89-8.2,18.39-26.01,43.45-29.31,47.93,0,0,22.84-44.15,27.28-55.48Z"/>
        <path class="cls-13" d="M145.18,93.2c4.45-11.35,15.74-48.4,15.74-48.4,0,0-11.88,23.29-16.43,35.85-16.28,44.95-14.68,57.13-14.68,57.13l15.37-44.58Z"/>
        <path class="cls-8" d="M126.56,52.94c1.53-14.29,7.69-39.37,7.69-39.37,0,0-2.85,42.9-7.03,71.05-1.67,11.27-5.84,20.57-7.21,23.91-.36,3.25,4.02-31.9,6.55-55.6Z"/>
        <path class="cls-9" d="M102.33,2.23c-.27,2.37,1.7,27.73,2.75,35.37,1.05,7.64,1.05,24.16,1.4,31.97,.35,7.8-.72,10.79-1.5,13.16,0,0-1.38-8.83-1.95-12.29-.56-3.46-4.31-32.92-3.14-44.37s2.43-23.85,2.43-23.85Z"/>
        <path class="cls-7" d="M0,59.31s20.55-1.83,65.53,17.98c24.18,10.65,48.36,19.62,48.36,19.62,0,0-11.13-9.17-48.22-23.32C20.22,56.26,0,59.31,0,59.31Z"/>
        <path class="cls-6" d="M11,35.51s20.9,14.18,35.22,19.92,54.47,21.95,54.47,21.95c0,0-16.05-10.4-24.12-13.53C42.09,50.44,11,35.51,11,35.51Z"/>
        <path class="cls-12" d="M23.84,21.42s1.23,3.06,5.45,7.97c3.49,4.06,11.29,9.46,19.61,13.9,36.6,19.52,40.3,18.9,40.3,18.9,0,0-.45-1.25-7.15-4.25-11.23-5.03-44.84-23.3-50.6-29.06-5.76-5.76-7.62-7.45-7.62-7.45Z"/>
        <path class="cls-11" d="M3.37,80.21s41.53,7.66,76.86,21.22c32.1,12.32,46.11,22.51,46.11,22.51,0,0-8.45-12.29-35.32-23.1C36.47,78.88,3.37,80.21,3.37,80.21Z"/>
        <path class="cls-10" d="M9.62,95.39s28.02-1,69.26,13.16c41.24,14.16,51.8,34.82,51.8,34.82,0,0-.09,.54-2.58-1.32-2.49-1.87-22.93-17.87-50.57-28.13C32.95,97.36,9.62,95.39,9.62,95.39Z"/>
        <path class="cls-3" d="M23.15,111.6c5.33,.11,5.62-1.53,29.08,4.79,23.46,6.31,37.62,13.55,56.4,24.78,16.24,9.71,23.64,26.11,23.64,26.11,0,0-19.6-21.01-47.65-34.95s-61.47-20.73-61.47-20.73Z"/>
        <path class="cls-4" d="M78.88,0s.7,3.47,1.59,6.53,5.27,15.4,6.72,22.03c2.46,11.24,6.55,36.59,6.22,38.81l-1.63-1.59s-5.09-22-6.79-30.49C79.38,7.21,78.88,0,78.88,0Z"/>
        <path class="cls-5" d="M78.59,50.42s-13.68-26.56-20.31-38.59c-2.49-4.51-1.35-6.57-2.04-5.43,0,0,1.49,5.96,4.94,14.39,6.7,16.4,17.41,29.63,17.41,29.63Z"/>
      </g>
      <g>
        <g>
          <path class="cls-23" d="M27.89,65.61c2.94-1.95,3.14-2.36,9.57-3.77,5.21-1.13,10.73-2.26,13.81-.99,1.03,.42,.89,1.28,.86,2.33,0,.03-1.58-3.28-6.07,0-3.67,2.67-18.17,2.4-18.18,2.44Z"/>
          <path class="cls-29" d="M28.1,79.68c7.25-3.75,15.08-7.14,17.37-9.92,2.29-2.79,1.68-3.26,3.3-3.99,1.62-.72,3.96-.02,3.96-.02-.27-.53-.55-1.06-.82-1.59,0,.02-2.8-.7-7.54,2.31-4.82,2.8-16.62,13.2-16.27,13.22Z"/>
          <path class="cls-31" d="M27.81,91.71c5.52-4.12,13.37-12.51,16.03-16.84,2.61-4.41,2.36-6.58,4-7.51,1.65-.91,4.91-.38,4.91-.38-.29-.94-.57-1.88-.84-2.82,.04,.02-6.81,.3-11.7,8.11-4.94,7.66-12.46,19.37-12.4,19.45Z"/>
          <path class="cls-32" d="M47.42,94.9c-.08,.03-.04-12.54,3.11-20.65,3.06-8.06,6.02-9.28,9.5-10.34,3.52-1.06,10.1-1.21,10.09-1.2-4.27,3.57-8.42,7.44-12.42,11.59-.18-.18-8.25,15.07-8.38,18.51-.64,.69-1.27,1.38-1.91,2.08Z"/>
          <path class="cls-24" d="M57.07,67.39c1.04-3.56,5.11-9.04,7.27-12.12,2.09-3.26,11.41-9.82,13.38-11.79,1.91-2.11,4.14-5.71,4.15-5.71-.02-.05-6.84,4.85-10.61,7.3-3.84,2.24-12.23,11.48-14.29,19.56-2.05,7.96,.13,2.76,.11,2.77Z"/>
          <path class="cls-30" d="M44.77,34.35c-.03-.23,.24-.39,.32-.19,1.88,6.16,8.71,26.31,9.92,31.92,.95,6.42,.47,8.8,.45,8.82-.5-.2-1-.4-1.5-.6-2-6.32-3.66-12.91-4.94-19.72-1.78-6.5-3.21-13.26-4.26-20.23Z"/>
          <path class="cls-26" d="M65.41,33.17c-4.19,3.43-7.39,10.66-8.38,15.23-1.58,4.62-3.1,27.9-2.66,27.84,.64-1.25,1.29-2.49,1.96-3.72,1.05-8.49,2.73-16.97,5.05-25.37,1.15-4.68,2.49-9.34,4.04-13.98Z"/>
          <path class="cls-27" d="M54.59,30.05c-2.74,4.04-7.7,30.97-.22,46.18,0,0,1.3,.04,1.1-1.34-.87-1.23,.07-29.59,.76-36.24-.1-6.5-1.6-8.61-1.63-8.6Z"/>
          <path class="cls-25" d="M54.02,75.67c1.12-3.57,5.04-12.06,10.04-17.42,4.81-5.69,17.7-15.97,17.77-15.76,0,0-3.49,4.16-8.08,8.73-4.65,4.43-13.01,12.49-14.48,15.47-1.53,2.87-2.95,5.82-2.95,5.82-.78,1.04-1.55,2.09-2.3,3.16Z"/>
          <path class="cls-28" d="M47.42,94.9c.22-6.52,1.55-18.23,8.25-25.29,3.73-3.97,7.78-5.88,10.65-6.81,3.25-1.05,6.34-2.6,9.2-4.53,2.45-1.65,4.93-3.22,7.43-4.69-.28-.7-21.38,17.98-25.07,23.37-4.31,4.63-8.01,14.08-8.16,17.91-.77,.01-1.53,.03-2.3,.04Z"/>
          <path class="cls-38" d="M53.62,83.29c-2.27,4.32-3.76,9.13-3.89,11.57-.77,.01-1.53,.03-2.3,.04,.22-6.52,1.55-18.23,8.25-25.29,3.73-3.97,7.78-5.88,10.65-6.81,3.25-1.05,6.34-2.6,9.2-4.53,2.45-1.65,4.93-3.22,7.43-4.69-.28-.7-21.38,17.98-25.07,23.37-1.52,1.67-3,3.93-4.26,6.35"/>
          <path class="cls-40" d="M49.72,94.86c-.77,.01-1.53,.03-2.3,.04-.4,7.15-.38,14.31,.05,21.46,1.05,17.31,4.55,34.51,10.5,51.07,.66-.24,1.31-.47,1.97-.71-8.27-23.22-11.67-47.67-10.22-71.87Z"/>
        </g>
        <path class="cls-39" d="M60.34,175.72s-4.35-9.65-7.42-20.14c-3.29-10.43-5.26-21.68-5.49-23.56-.79-3.87,1.84-19.45,2.16-21.43,0,0,.27-1.23,.61-1.11,.17,.12,.18,14.74,.48,16.24,.04,.71,1.34,13.32,4.57,25.39,2.92,12.13,7.79,23.72,7.77,23.69-.9,.3-1.79,.61-2.69,.91Z"/>
        <path class="cls-37" d="M47.42,132.03c-.79-3.87,1.84-19.45,2.16-21.43,0,0,.27-1.23,.61-1.11-.21-.04-1.24,16.24-1.52,18.9-.53,2.61-1.25,3.64-1.25,3.64Z"/>
      </g>
    </g>
  </g>
</svg>