<?xml version="1.0" encoding="UTF-8"?>
<svg xmlns="http://www.w3.org/2000/svg" xmlns:xlink="http://www.w3.org/1999/xlink" viewBox="0 0 86.47 57.13">
  <defs>
    <style>
      .cls-1 {
        fill: none;
        stroke: url(#linear-gradient-3);
        stroke-miterlimit: 10;
      }

      .cls-2 {
        fill: url(#linear-gradient);
      }

      .cls-3 {
        fill: url(#radial-gradient-18);
      }

      .cls-3, .cls-4, .cls-5, .cls-6, .cls-7 {
        opacity: .5;
      }

      .cls-4 {
        fill: url(#radial-gradient-11);
      }

      .cls-8 {
        fill: url(#radial-gradient-12);
      }

      .cls-8, .cls-9, .cls-10, .cls-11, .cls-12, .cls-13, .cls-14, .cls-15 {
        opacity: .2;
      }

      .cls-9 {
        fill: url(#radial-gradient-19);
      }

      .cls-10 {
        fill: url(#radial-gradient-7);
      }

      .cls-11 {
        fill: url(#radial-gradient-3);
      }

      .cls-16 {
        fill: url(#radial-gradient-21);
      }

      .cls-17 {
        fill: url(#radial-gradient-10);
      }

      .cls-18 {
        fill: url(#radial-gradient-14);
      }

      .cls-5 {
        fill: url(#radial-gradient-2);
      }

      .cls-6 {
        fill: url(#radial-gradient-6);
      }

      .cls-19 {
        fill: url(#radial-gradient-5);
      }

      .cls-20 {
        fill: url(#radial-gradient-9);
      }

      .cls-21 {
        fill: url(#linear-gradient-8);
      }

      .cls-22 {
        fill: url(#linear-gradient-9);
      }

      .cls-23 {
        fill: url(#linear-gradient-4);
      }

      .cls-24 {
        fill: url(#linear-gradient-2);
      }

      .cls-25 {
        fill: url(#linear-gradient-6);
      }

      .cls-26 {
        fill: url(#linear-gradient-7);
      }

      .cls-27 {
        fill: url(#linear-gradient-5);
      }

      .cls-12 {
        fill: url(#radial-gradient-8);
      }

      .cls-12, .cls-13, .cls-14, .cls-15, .cls-28, .cls-29, .cls-7 {
        mix-blend-mode: multiply;
      }

      .cls-13 {
        fill: url(#radial-gradient-4);
      }

      .cls-30 {
        fill: url(#radial-gradient);
      }

      .cls-31 {
        fill: url(#linear-gradient-14);
      }

      .cls-32 {
        fill: url(#linear-gradient-18);
      }

      .cls-33 {
        fill: url(#linear-gradient-22);
      }

      .cls-34 {
        fill: url(#linear-gradient-20);
      }

      .cls-35 {
        fill: url(#linear-gradient-21);
      }

      .cls-36 {
        fill: url(#linear-gradient-23);
      }

      .cls-37 {
        fill: url(#linear-gradient-15);
      }

      .cls-38 {
        fill: url(#linear-gradient-19);
      }

      .cls-39 {
        fill: url(#linear-gradient-16);
      }

      .cls-40 {
        fill: url(#linear-gradient-17);
      }

      .cls-41 {
        fill: url(#linear-gradient-13);
      }

      .cls-42 {
        fill: url(#linear-gradient-12);
      }

      .cls-43 {
        fill: url(#linear-gradient-10);
      }

      .cls-44 {
        fill: url(#linear-gradient-11);
      }

      .cls-45 {
        isolation: isolate;
      }

      .cls-14 {
        fill: url(#radial-gradient-13);
      }

      .cls-15 {
        fill: url(#radial-gradient-20);
      }

      .cls-28 {
        fill: url(#radial-gradient-17);
        opacity: .47;
      }

      .cls-29 {
        fill: url(#radial-gradient-15);
        opacity: .23;
      }

      .cls-7 {
        fill: url(#radial-gradient-16);
      }
    </style>
    <linearGradient id="linear-gradient" x1="1953.21" y1="-1142.11" x2="1987.84" y2="-1142.11" gradientTransform="translate(1975.68 -1220.08) rotate(117.13) scale(1 -1)" gradientUnits="userSpaceOnUse">
      <stop offset=".08" stop-color="#a2b845"/>
      <stop offset=".18" stop-color="#9eb445"/>
      <stop offset=".28" stop-color="#92aa45"/>
      <stop offset=".38" stop-color="#7f9945"/>
      <stop offset=".38" stop-color="#7e9845"/>
      <stop offset=".54" stop-color="#698745"/>
      <stop offset=".64" stop-color="#628145"/>
      <stop offset=".79" stop-color="#4c653d"/>
    </linearGradient>
    <linearGradient id="linear-gradient-2" x1="1953.21" y1="-1142.11" x2="1987.84" y2="-1142.11" gradientTransform="translate(1975.68 -1220.08) rotate(117.13) scale(1 -1)" gradientUnits="userSpaceOnUse">
      <stop offset=".08" stop-color="#4c653d"/>
      <stop offset=".83" stop-color="#4c653d" stop-opacity="0"/>
    </linearGradient>
    <linearGradient id="linear-gradient-3" x1="45.95" y1="50.89" x2="45.82" y2="10.59" gradientUnits="userSpaceOnUse">
      <stop offset=".08" stop-color="#4c653d"/>
      <stop offset=".23" stop-color="#628145"/>
      <stop offset=".33" stop-color="#698745"/>
      <stop offset=".49" stop-color="#7e9845"/>
      <stop offset=".49" stop-color="#7f9945"/>
      <stop offset="1" stop-color="#a2b845"/>
    </linearGradient>
    <radialGradient id="radial-gradient" cx="74.32" cy="14.8" fx="74.32" fy="14.8" r="3.85" gradientUnits="userSpaceOnUse">
      <stop offset=".14" stop-color="#fff5c3"/>
      <stop offset=".43" stop-color="#fff"/>
      <stop offset="1" stop-color="#b7b18c"/>
    </radialGradient>
    <radialGradient id="radial-gradient-2" cx="74.54" cy="14.95" fx="74.54" fy="14.95" r="2.94" gradientTransform="translate(34.51 -48.76) rotate(50) scale(1 .69)" gradientUnits="userSpaceOnUse">
      <stop offset="0" stop-color="#fff"/>
      <stop offset="1" stop-color="#b7b18c"/>
    </radialGradient>
    <radialGradient id="radial-gradient-3" cx="74.37" cy="14.31" fx="74.37" fy="14.31" r="2.43" gradientTransform="translate(34.11 -48.99) rotate(50) scale(1 .69)" xlink:href="#radial-gradient-2"/>
    <radialGradient id="radial-gradient-4" cx="75.49" cy="15.42" fx="75.49" fy="15.42" r="1.77" gradientTransform="translate(35.09 -49.22) rotate(50) scale(1 .69)" xlink:href="#radial-gradient-2"/>
    <radialGradient id="radial-gradient-5" cx="79.63" cy="16.09" fx="79.63" fy="16.09" r="4" gradientTransform="translate(46.64 -57.67) rotate(56.12) scale(1 .85)" gradientUnits="userSpaceOnUse">
      <stop offset=".14" stop-color="#fff5c3"/>
      <stop offset=".38" stop-color="#fff"/>
      <stop offset=".7" stop-color="#d8d5c1"/>
      <stop offset="1" stop-color="#b7b18c"/>
    </radialGradient>
    <radialGradient id="radial-gradient-6" cx="956.17" cy="408.43" fx="956.17" fy="408.43" gradientTransform="translate(-892.1 238.81) rotate(-29.28) scale(1 .69)" xlink:href="#radial-gradient-2"/>
    <radialGradient id="radial-gradient-7" cx="955.99" cy="407.79" fx="955.99" fy="407.79" r="2.43" gradientTransform="translate(-892.39 239.16) rotate(-29.28) scale(1 .69)" xlink:href="#radial-gradient-2"/>
    <radialGradient id="radial-gradient-8" cx="957.11" cy="408.9" fx="957.11" fy="408.9" r="1.77" gradientTransform="translate(-892.44 238.15) rotate(-29.28) scale(1 .69)" xlink:href="#radial-gradient-2"/>
    <radialGradient id="radial-gradient-9" cx="74.01" cy="9.8" fx="74.01" fy="9.8" r="4.75" gradientTransform="translate(31.6 -51.23) rotate(50) scale(1 .69)" gradientUnits="userSpaceOnUse">
      <stop offset=".14" stop-color="#fff5c3"/>
      <stop offset=".43" stop-color="#fff"/>
      <stop offset=".57" stop-color="#fdfcfc"/>
      <stop offset=".67" stop-color="#f7f6f2"/>
      <stop offset=".76" stop-color="#edebe2"/>
      <stop offset=".85" stop-color="#dedccb"/>
      <stop offset=".93" stop-color="#ccc8ae"/>
      <stop offset="1" stop-color="#b7b18c"/>
    </radialGradient>
    <radialGradient id="radial-gradient-10" cx="78.63" cy="8.23" fx="78.63" fy="8.23" r="3.57" gradientTransform="translate(1.83 -12.2) rotate(6.53) scale(1 1.4)" gradientUnits="userSpaceOnUse">
      <stop offset=".14" stop-color="#fff5c3"/>
      <stop offset=".43" stop-color="#fff"/>
      <stop offset=".58" stop-color="#fdfdfc"/>
      <stop offset=".68" stop-color="#f7f6f2"/>
      <stop offset=".77" stop-color="#edece3"/>
      <stop offset=".85" stop-color="#dfddcd"/>
      <stop offset=".92" stop-color="#cdc9b0"/>
      <stop offset="1" stop-color="#b8b28e"/>
      <stop offset="1" stop-color="#b7b18c"/>
    </radialGradient>
    <radialGradient id="radial-gradient-11" cx="-235.88" cy="1378.6" fx="-235.88" fy="1378.6" r="2.94" gradientTransform="translate(-239.99 932.17) rotate(-174.95) scale(1 .69)" xlink:href="#radial-gradient-2"/>
    <radialGradient id="radial-gradient-12" cx="-236.06" cy="1377.96" fx="-236.06" fy="1377.96" r="2.43" gradientTransform="translate(-239.55 932.05) rotate(-174.95) scale(1 .69)" xlink:href="#radial-gradient-2"/>
    <radialGradient id="radial-gradient-13" cx="-234.94" cy="1379.07" fx="-234.94" fy="1379.07" r="1.77" gradientTransform="translate(-240.08 932.91) rotate(-174.95) scale(1 .69)" xlink:href="#radial-gradient-2"/>
    <radialGradient id="radial-gradient-14" cx="81.9" cy="11.41" fx="81.9" fy="11.41" r="5.02" gradientTransform="translate(1.74 30.02) rotate(-18.66) scale(1 .7)" gradientUnits="userSpaceOnUse">
      <stop offset=".14" stop-color="#fff5c3"/>
      <stop offset=".31" stop-color="#fff"/>
      <stop offset=".41" stop-color="#fafaf8"/>
      <stop offset=".56" stop-color="#eeede4"/>
      <stop offset=".74" stop-color="#dad7c5"/>
      <stop offset=".94" stop-color="#bfba99"/>
      <stop offset="1" stop-color="#b7b18c"/>
    </radialGradient>
    <radialGradient id="radial-gradient-15" cx="75.12" cy="10.84" fx="75.12" fy="10.84" r="3.01" gradientTransform="translate(32.55 -51.5) rotate(50) scale(1 .69)" xlink:href="#radial-gradient-2"/>
    <radialGradient id="radial-gradient-16" cx="74.94" cy="10.12" fx="74.94" fy="10.12" r="1.87" gradientTransform="translate(32.1 -51.76) rotate(50) scale(1 .69)" xlink:href="#radial-gradient-2"/>
    <radialGradient id="radial-gradient-17" cx="75.24" cy="12.36" fx="75.24" fy="12.36" r="1.83" gradientTransform="translate(33.39 -50.75) rotate(50) scale(1 .69)" xlink:href="#radial-gradient-2"/>
    <radialGradient id="radial-gradient-18" cx="711.34" cy="1323" fx="711.34" fy="1323" r="2.94" gradientTransform="translate(-674.16 885.64) rotate(-101.12) scale(1 .69)" xlink:href="#radial-gradient-2"/>
    <radialGradient id="radial-gradient-19" cx="711.17" cy="1322.36" fx="711.17" fy="1322.36" r="2.43" gradientTransform="translate(-673.92 886.03) rotate(-101.12) scale(1 .69)" xlink:href="#radial-gradient-2"/>
    <radialGradient id="radial-gradient-20" cx="712.28" cy="1323.47" fx="712.28" fy="1323.47" r="1.77" gradientTransform="translate(-674.89 885.77) rotate(-101.12) scale(1 .69)" xlink:href="#radial-gradient-2"/>
    <linearGradient id="linear-gradient-4" x1="763.35" y1="-620.7" x2="786.88" y2="-647.41" gradientTransform="translate(306.02 982.66) rotate(-67.54)" gradientUnits="userSpaceOnUse">
      <stop offset=".18" stop-color="#b7b18c"/>
      <stop offset=".32" stop-color="#cac6ab"/>
      <stop offset=".52" stop-color="#e1decf"/>
      <stop offset=".71" stop-color="#f1f0e9"/>
      <stop offset=".87" stop-color="#fbfbf9"/>
      <stop offset="1" stop-color="#fff"/>
    </linearGradient>
    <linearGradient id="linear-gradient-5" x1="760.55" y1="-618.6" x2="788.23" y2="-650.02" gradientTransform="translate(306.02 982.66) rotate(-67.54)" gradientUnits="userSpaceOnUse">
      <stop offset="0" stop-color="#fff"/>
      <stop offset=".19" stop-color="#f4f3ee"/>
      <stop offset=".57" stop-color="#d9d6c3"/>
      <stop offset="1" stop-color="#b7b18c"/>
    </linearGradient>
    <linearGradient id="linear-gradient-6" x1="731.95" y1="-616.9" x2="780.89" y2="-636.02" gradientTransform="translate(306.02 982.66) rotate(-67.54)" gradientUnits="userSpaceOnUse">
      <stop offset="0" stop-color="#fff"/>
      <stop offset=".13" stop-color="#fbfbf9"/>
      <stop offset=".29" stop-color="#f1f0e9"/>
      <stop offset=".48" stop-color="#e1decf"/>
      <stop offset=".68" stop-color="#cac6ab"/>
      <stop offset=".82" stop-color="#b7b18c"/>
    </linearGradient>
    <linearGradient id="linear-gradient-7" x1="731.95" y1="-616.9" x2="780.89" y2="-636.02" xlink:href="#linear-gradient-4"/>
    <linearGradient id="linear-gradient-8" x1="750.29" y1="-646.49" x2="774.07" y2="-621.29" gradientTransform="translate(306.02 982.66) rotate(-67.54)" gradientUnits="userSpaceOnUse">
      <stop offset="0" stop-color="#fff"/>
      <stop offset=".15" stop-color="#fbfbf9"/>
      <stop offset=".34" stop-color="#f1f0e9"/>
      <stop offset=".55" stop-color="#e1decf"/>
      <stop offset=".78" stop-color="#cac6ab"/>
      <stop offset=".95" stop-color="#b7b18c"/>
    </linearGradient>
    <linearGradient id="linear-gradient-9" x1="737.69" y1="-661.28" x2="774.31" y2="-622.47" gradientTransform="translate(306.02 982.66) rotate(-67.54)" gradientUnits="userSpaceOnUse">
      <stop offset="0" stop-color="#b7b18c"/>
      <stop offset=".16" stop-color="#bdb796"/>
      <stop offset=".42" stop-color="#cecab1"/>
      <stop offset=".76" stop-color="#e9e7dc"/>
      <stop offset="1" stop-color="#fff"/>
    </linearGradient>
    <linearGradient id="linear-gradient-10" x1="766.43" y1="-617.03" x2="778.69" y2="-621.82" gradientTransform="translate(306.02 982.66) rotate(-67.54)" gradientUnits="userSpaceOnUse">
      <stop offset="0" stop-color="#fff"/>
      <stop offset=".12" stop-color="#fbfbf9"/>
      <stop offset=".27" stop-color="#f1f0e9"/>
      <stop offset=".43" stop-color="#e1decf"/>
      <stop offset=".61" stop-color="#cac6ab"/>
      <stop offset=".74" stop-color="#b7b18c"/>
    </linearGradient>
    <linearGradient id="linear-gradient-11" x1="751.32" y1="-618.15" x2="785.42" y2="-631.48" xlink:href="#linear-gradient-10"/>
    <radialGradient id="radial-gradient-21" cx="762" cy="-622.83" fx="762" fy="-622.83" r="5.83" gradientTransform="translate(-560.7 1192.94) rotate(-9.37) scale(1 1.67)" gradientUnits="userSpaceOnUse">
      <stop offset="0" stop-color="#fff" stop-opacity="0"/>
      <stop offset=".14" stop-color="#f1f0e9" stop-opacity=".18"/>
      <stop offset=".61" stop-color="#c7c3a6" stop-opacity=".77"/>
      <stop offset=".82" stop-color="#b7b18c"/>
    </radialGradient>
    <linearGradient id="linear-gradient-12" x1="760.65" y1="-619.61" x2="811.58" y2="-639.5" xlink:href="#linear-gradient-10"/>
    <linearGradient id="linear-gradient-13" x1="767.75" y1="-634.35" x2="783.9" y2="-624.97" gradientTransform="translate(306.02 982.66) rotate(-67.54)" gradientUnits="userSpaceOnUse">
      <stop offset="0" stop-color="#fff"/>
      <stop offset=".16" stop-color="#fbfbf9"/>
      <stop offset=".36" stop-color="#f1f0e9"/>
      <stop offset=".59" stop-color="#e0dece"/>
      <stop offset=".83" stop-color="#cac5aa"/>
      <stop offset="1" stop-color="#b7b18c"/>
    </linearGradient>
    <linearGradient id="linear-gradient-14" x1="27.67" y1="518.7" x2="28.17" y2="487.32" gradientTransform="translate(260.84 -434.09) rotate(28.71)" gradientUnits="userSpaceOnUse">
      <stop offset=".26" stop-color="#b7b18c"/>
      <stop offset=".33" stop-color="#c5c0a3"/>
      <stop offset=".46" stop-color="#dad7c4"/>
      <stop offset=".58" stop-color="#eae8de"/>
      <stop offset=".71" stop-color="#f5f5f0"/>
      <stop offset=".85" stop-color="#fcfcfb"/>
      <stop offset="1" stop-color="#fff"/>
    </linearGradient>
    <linearGradient id="linear-gradient-15" x1="18.55" y1="502.66" x2="45.5" y2="492.13" gradientTransform="translate(260.84 -434.09) rotate(28.71)" gradientUnits="userSpaceOnUse">
      <stop offset=".26" stop-color="#b7b18c"/>
      <stop offset=".26" stop-color="#b7b18c" stop-opacity=".99"/>
      <stop offset=".32" stop-color="#b7b18c" stop-opacity=".73"/>
      <stop offset=".38" stop-color="#b7b18c" stop-opacity=".5"/>
      <stop offset=".45" stop-color="#b7b18c" stop-opacity=".32"/>
      <stop offset=".51" stop-color="#b7b18c" stop-opacity=".18"/>
      <stop offset=".57" stop-color="#b7b18c" stop-opacity=".08"/>
      <stop offset=".64" stop-color="#b7b18c" stop-opacity=".02"/>
      <stop offset=".72" stop-color="#b7b18c" stop-opacity="0"/>
    </linearGradient>
    <linearGradient id="linear-gradient-16" x1="15.62" y1="514.76" x2="21.87" y2="497.22" gradientTransform="translate(260.84 -434.09) rotate(28.71)" gradientUnits="userSpaceOnUse">
      <stop offset=".26" stop-color="#b7b18c"/>
      <stop offset=".38" stop-color="#beb998"/>
      <stop offset=".61" stop-color="#d3cfb9"/>
      <stop offset=".91" stop-color="#f4f3ee"/>
      <stop offset="1" stop-color="#fff"/>
    </linearGradient>
    <linearGradient id="linear-gradient-17" x1="18.51" y1="505.9" x2="24.16" y2="496.44" xlink:href="#linear-gradient-15"/>
    <linearGradient id="linear-gradient-18" x1="17.32" y1="519.43" x2="47" y2="497.03" gradientTransform="translate(260.84 -434.09) rotate(28.71)" gradientUnits="userSpaceOnUse">
      <stop offset=".26" stop-color="#b7b18c"/>
      <stop offset=".74" stop-color="#e8e6da"/>
      <stop offset="1" stop-color="#fff"/>
    </linearGradient>
    <linearGradient id="linear-gradient-19" x1="36.93" y1="505.42" x2="34.53" y2="498.97" gradientTransform="translate(260.84 -434.09) rotate(28.71)" gradientUnits="userSpaceOnUse">
      <stop offset=".26" stop-color="#b7b18c"/>
      <stop offset=".26" stop-color="#b7b18c" stop-opacity=".99"/>
      <stop offset=".35" stop-color="#b7b18c" stop-opacity=".73"/>
      <stop offset=".45" stop-color="#b7b18c" stop-opacity=".5"/>
      <stop offset=".54" stop-color="#b7b18c" stop-opacity=".32"/>
      <stop offset=".64" stop-color="#b7b18c" stop-opacity=".18"/>
      <stop offset=".73" stop-color="#b7b18c" stop-opacity=".08"/>
      <stop offset=".84" stop-color="#b7b18c" stop-opacity=".02"/>
      <stop offset=".95" stop-color="#b7b18c" stop-opacity="0"/>
    </linearGradient>
    <linearGradient id="linear-gradient-20" x1="15.2" y1="516.51" x2="40.43" y2="504.73" gradientTransform="translate(260.84 -434.09) rotate(28.71)" gradientUnits="userSpaceOnUse">
      <stop offset=".4" stop-color="#b7b18c"/>
      <stop offset=".5" stop-color="#beb998"/>
      <stop offset=".69" stop-color="#d3cfb9"/>
      <stop offset=".93" stop-color="#f4f3ee"/>
      <stop offset="1" stop-color="#fff"/>
    </linearGradient>
    <linearGradient id="linear-gradient-21" x1="20.86" y1="502.78" x2="29.31" y2="517.36" gradientTransform="translate(260.84 -434.09) rotate(28.71)" xlink:href="#linear-gradient-10"/>
    <linearGradient id="linear-gradient-22" x1="-842.52" y1="978.11" x2="-862.89" y2="953.71" gradientTransform="translate(653.13 -141.31) rotate(34.26) scale(.48 .51)" gradientUnits="userSpaceOnUse">
      <stop offset=".21" stop-color="#4c653d"/>
      <stop offset=".36" stop-color="#628145"/>
      <stop offset=".46" stop-color="#698745"/>
      <stop offset=".62" stop-color="#7e9845"/>
      <stop offset=".62" stop-color="#7f9945"/>
      <stop offset=".72" stop-color="#92aa45"/>
      <stop offset=".82" stop-color="#9eb445"/>
      <stop offset=".92" stop-color="#a2b845"/>
    </linearGradient>
    <linearGradient id="linear-gradient-23" x1="-853.14" y1="967.8" x2="-838.65" y2="960.86" gradientTransform="translate(653.13 -141.31) rotate(34.26) scale(.48 .51)" xlink:href="#linear-gradient-2"/>
  </defs>
  <g class="cls-45">
    <g id="Layer_2" data-name="Layer 2">
      <g id="OBJECTS">
        <g>
          <g>
            <path class="cls-2" d="M48.09,25.84C56.91,15.75,59.7-.4,73.42,0c0,0-.82-.19-3.78,5.6s-8.16,17.27-14.55,19.48-7,.75-7,.75Z"/>
            <path class="cls-24" d="M62.6,10.44C67.68,1.41,73.42,0,73.42,0c0,0-.82-.19-3.78,5.6s-8.16,17.27-14.55,19.48-7,.75-7,.75c0,0,6.57-3.02,8.88-7.09,2.31-4.07,5.62-8.3,5.62-8.3Z"/>
          </g>
          <path class="cls-1" d="M12.89,50.73s5.81-9.22,23.03-18.25S79.08,10.93,79.08,10.93"/>
          <g>
            <path class="cls-30" d="M77.33,12.92s-2.98-2.41-4.99-1.47c-1.41,.66-2.07,4.14-1.36,5.47,.62,1.17,4.5,1.88,5.58,1.16,.88-.58,1.19-3.02,1.34-3.8,.24-1.33-.56-1.36-.56-1.36Z"/>
            <path class="cls-5" d="M71.81,16.52s4.09-1.86,5.24-3.34c0,0-.85,1.18-2.32,2.1s-2.93,1.25-2.93,1.25Z"/>
            <path class="cls-11" d="M71.89,15.24s2.25,.07,4.74-1.97c0,0-1.16,.72-2.38,1.2s-2.36,.76-2.36,.76Z"/>
            <path class="cls-13" d="M73.99,16.57s1.73-.48,2.86-2.45c0,0-.1,.58-1.2,1.68-.63,.63-1.66,.76-1.66,.76Z"/>
            <path class="cls-19" d="M77.33,12.92s3.21-1.73,5.26,1.78c1.18,2.03-1.1,4.78-2.02,4.95-1.79,.33-4.33-1.76-4.23-3.96,.05-1.14,.88-2.62,.99-2.77Z"/>
            <path class="cls-6" d="M80.3,19.05s-1.07-4.36-2.31-5.77c0,0,1,1.06,1.63,2.67s.68,3.11,.68,3.11Z"/>
            <path class="cls-10" d="M79.05,18.73s.48-2.2-1.05-5.02c0,0,.49,1.27,.74,2.56s.31,2.46,.31,2.46Z"/>
            <path class="cls-12" d="M80.74,16.91s-.15-1.79-1.87-3.27c0,0,.55,.2,1.43,1.49,.5,.74,.44,1.77,.44,1.77Z"/>
            <path class="cls-20" d="M70.72,6.23c-.36,.25-.95,4.44,1.54,6.13,2.32,1.58,5.07,.56,5.07,.56,0,0-.38-5.22-1.89-6.28s-4.19-.78-4.72-.41Z"/>
            <path class="cls-17" d="M77.33,12.92c-1.24-1.37-2.42-4.14-1.89-6.28,.48-1.94,2.96-3.16,3.63-3.11,.61,.04,3.46,2.13,2.78,4.78s-4.52,4.6-4.52,4.6Z"/>
            <path class="cls-4" d="M79.31,5.56s-1.58,4.2-1.35,6.07c0,0-.23-1.44,.16-3.12s1.19-2.95,1.19-2.95Z"/>
            <path class="cls-8" d="M80.16,6.53s-1.64,1.54-1.97,4.74c0,0,.31-1.33,.84-2.53s1.13-2.21,1.13-2.21Z"/>
            <path class="cls-14" d="M77.73,7.07s-.88,1.56-.3,3.75c0,0-.34-.48-.34-2.04,0-.9,.63-1.71,.63-1.71Z"/>
            <path class="cls-18" d="M77.33,12.92s.98-2.76,2.44-3.83,5.16-2.31,6.7,1.96c0,0-.7,3.19-3.89,3.64-3.18,.45-5.26-1.78-5.26-1.78Z"/>
            <path class="cls-29" d="M72.71,8.5s1.25,3.7,4.62,4.42c0,0-1.9-1.12-2.78-2.16s-1.84-2.26-1.84-2.26Z"/>
            <path class="cls-7" d="M73.76,8.37s.34,1.91,2.26,3.29c0,0-1.55-1.62-2.26-3.29Z"/>
            <path class="cls-28" d="M73.31,11.77s1.13,1.1,3.69,1.1c0,0-2.49-.4-3.69-1.1Z"/>
            <path class="cls-3" d="M84.56,12.18s-4.47-.35-6.21,.39c0,0,1.32-.62,3.04-.72s3.17,.32,3.17,.32Z"/>
            <path class="cls-9" d="M83.86,13.26s-1.94-1.14-5.1-.57c0,0,1.36-.07,2.67,.1s2.44,.47,2.44,.47Z"/>
            <path class="cls-15" d="M82.67,11.08s-1.74-.41-3.69,.76c0,0,.36-.46,1.86-.89,.86-.25,1.82,.13,1.82,.13Z"/>
          </g>
          <g>
            <path class="cls-23" d="M10.8,15.17c-.07,2.63-2.87,4.96-.29,8.89,2.57,3.93,4.76,6.57,9.52,7.93,0,0,1.55,1.46,2,.11s-.29-6.98-1.05-9.34-2.9-5.6-5.77-6.58-4.4-1-4.4-1Z"/>
            <path class="cls-27" d="M10.8,15.17c-.07,2.63-2.87,4.96-.29,8.89,2.57,3.93,4.76,6.57,9.52,7.93,0,0,1.55,1.46,2,.11,0,0-.13-4.35-2.72-9.72-2.94-6.09-8.51-7.2-8.51-7.2Z"/>
            <path class="cls-25" d="M21.48,34.55c-3.26,1.21-8.49,5.19-9.67,8.8s-.8,8.91-1.13,10.72-.22,3.46,.38,2.99,5.06,.15,6.52-6.11,.4-10.69,.83-11.43c.68-1.15,3.08-4.97,3.08-4.97Z"/>
            <path class="cls-26" d="M21.48,34.55c-3.26,1.21-8.49,5.19-9.67,8.8s-.8,8.91-1.13,10.72-.22,3.46,.38,2.99c0,0,4.33-2.51,5.03-8.06,.7-5.55-.04-8.57,1.05-9.92,1.36-1.69,4.35-4.52,4.35-4.52Z"/>
            <path class="cls-21" d="M.31,42.23c-.36,.14-.42,.62-.1,.83,2.33,1.57,6.07,3.34,9.69,.29,4.08-3.43,6.46-5.72,8.09-6.69,1.63-.97,1.64-.24,2.91-1.35s2.06-3.24,1.13-3.22-6.09-3.34-8.54-3.12-6.08,.35-7.42,4.82c-1.33,4.46-2.75,6.64-4.16,7.59-.62,.41-1.17,.68-1.61,.85Z"/>
            <path class="cls-22" d="M.21,43.06c-.32-.22-.26-.7,.1-.83,.43-.17,.99-.43,1.61-.85,1.42-.95,2.83-3.13,4.16-7.59,1.33-4.46,4.97-4.6,7.42-4.82s7.61,3.14,8.54,3.12,.15,2.11-1.13,3.22c0,0-2.53-.52-5.25,.39s-6.62,6.95-9.44,7.34-6.01,.02-6.01,.02Z"/>
            <path class="cls-43" d="M23.26,35.92c1.34,.9,3.02-1.11,4.57-1.39s8.19-1.73,8.19-1.73c0,0-7.38,.53-9.31-.26s-4.66-1.11-5.27-1.36,1.02,4.21,1.83,4.75Z"/>
            <path class="cls-44" d="M19.86,35.6c-1.14,2.5-2.15,4.95-1.19,7.08s5.59,2.82,5.59,2.82c0,0,1.22-1.95,1.37-6.29,.15-4.34-1.44-5.92-3.61-7.12,0,0-1.75-.78-2-.11-.23,.63-.23,.79,.62,1.25,.5,.27,.75,.86,.6,1.41-.06,.25-.17,.49-.34,.68-.55,.59-1.04,.29-1.04,.29Z"/>
            <path class="cls-16" d="M20.64,33.22c.5,.27,.75,.86,.6,1.41-.06,.25-.17,.49-.34,.68-.55,.59-1.04,.29-1.04,.29-1.14,2.5-2.15,4.95-1.19,7.08s5.59,2.82,5.59,2.82c0,0,2.23-3.56,.16-8.09s-2.14-3.7-2.67-4.04-1.1-.15-1.1-.15Z"/>
            <path class="cls-42" d="M23.27,32.5c2.9-1.67,4.28-5.4,4.94-9.22s-2.26-8.4-2.31-9.76-.56-1.36-.95-.19-3.91,8.72-4.52,12.67,1.12,6.71,1.12,6.71c0,0,.38,.57,1.72-.21Z"/>
            <path class="cls-41" d="M25.89,13.53c-.05-1.35-.56-1.36-.95-.19s-3.91,8.72-4.52,12.67,1.12,6.71,1.12,6.71c0,0,1.38,1.06,2.41-4.7s1.94-14.48,1.94-14.48Z"/>
          </g>
          <g>
            <g>
              <path class="cls-31" d="M50.46,7.39c-3.89,.34-7.4,3.36-8.11,6.68s.43,9.13-2.69,12.36c0,0,4.41-1.07,9-6.06,7.03-7.64,1.79-12.98,1.79-12.98Z"/>
              <path class="cls-37" d="M39.66,26.43s4.41-1.07,9-6.06c7.03-7.64,1.79-12.98,1.79-12.98,0,0-1.15,6.08-3.26,9.57s-7.54,9.47-7.54,9.47Z"/>
            </g>
            <g>
              <path class="cls-39" d="M31.52,8.14c-1.38,.05-1.65,3.91,2.66,9.36s5.12,8.24,3.29,10.45c0,0,2.58-.19,3.29-2.4s1.24-3.4,.18-7.32-1.6-10.39-9.42-10.1Z"/>
              <path class="cls-40" d="M37.47,27.95s2.58-.19,3.29-2.4,1.24-3.4,.18-7.32-1.6-10.39-9.42-10.1c0,0,4.77,3.63,5.91,7.55s1.8,4.38,2.46,7.09c.47,1.94-1.86,4.99-2.42,5.18Z"/>
            </g>
            <g>
              <path class="cls-32" d="M39.66,26.43s6.78-2.46,10.11-3.36c3.33-.89,6.22-1.66,8.36-.61s3.49,2.65,3.49,2.65c0,0-2.69,4.46-6.02,3.99s-15.95-2.68-15.95-2.68Z"/>
              <path class="cls-38" d="M53.06,24.49c5.98-.14,8.57,.63,8.57,.63,0,0-1.35-1.6-3.49-2.65s-5.03-.29-8.36,.61c-3.33,.89-10.11,3.36-10.11,3.36,0,0,7.58-1.81,13.4-1.95Z"/>
            </g>
            <path class="cls-34" d="M55.98,26.96c.81,.44-.11,1.54-2.31,2.3s-4.89,.4-6.81-.04-4.58-2.2-6.65-1.55-2.94,1.22-2.94,1.22c0,0,1.14-2.76,5.13-2.97,3.99-.21,6.26-.32,8.61,.1s3.68,.23,4.96,.93Z"/>
            <path class="cls-35" d="M35.96,16.26c-1.49,1.68-3.26,2.26-.43,5.4s2.85,3.41,2.13,4.87-3.92,4.08-2.57,6.08l.83-.13s.1-2.64,2-3.96,3.08-1.93,3.4-5.29-.24-4.17-1.38-4.54-3.79-.31-3.89-1.04,.43-.93,.37-1.14-.07-.68-.45-.25Z"/>
          </g>
          <g>
            <path class="cls-33" d="M35.34,38.31c-5.15-.77-13.74-5.73-9.38-6.79,3.58-.87,5.8-1.19,9.15-1.34,4-.17,8.87-.03,9.36,.63,2.58,3.5-6.84,7.85-9.14,7.5Z"/>
            <path class="cls-36" d="M35.21,30.35s1.22,2.04,.84,3.76-.7,4.21-.7,4.21c2.3,.34,11.72-4,9.14-7.5-.49-.66-5.36-.8-9.36-.63"/>
          </g>
        </g>
      </g>
    </g>
  </g>
</svg>