<?xml version="1.0" encoding="UTF-8"?>
<svg xmlns="http://www.w3.org/2000/svg" xmlns:xlink="http://www.w3.org/1999/xlink" viewBox="0 0 427.77 141.35">
  <defs>
    <style>
      .cls-1 {
        fill: url(#linear-gradient);
      }

      .cls-2 {
        fill: #2c443b;
      }

      .cls-3 {
        mix-blend-mode: multiply;
      }

      .cls-4 {
        fill: url(#radial-gradient-20);
      }

      .cls-5 {
        fill: url(#radial-gradient-21);
      }

      .cls-6 {
        fill: url(#radial-gradient-30);
      }

      .cls-7 {
        fill: url(#radial-gradient-31);
      }

      .cls-8 {
        fill: url(#radial-gradient-26);
      }

      .cls-9 {
        fill: url(#radial-gradient-27);
      }

      .cls-10 {
        fill: url(#radial-gradient-22);
      }

      .cls-11 {
        fill: url(#radial-gradient-24);
      }

      .cls-12 {
        fill: url(#radial-gradient-23);
      }

      .cls-13 {
        fill: url(#radial-gradient-28);
      }

      .cls-14 {
        fill: url(#radial-gradient-29);
      }

      .cls-15 {
        fill: url(#radial-gradient-25);
      }

      .cls-16 {
        fill: url(#radial-gradient-10);
      }

      .cls-17 {
        fill: url(#radial-gradient-19);
      }

      .cls-18 {
        fill: url(#radial-gradient-18);
      }

      .cls-19 {
        fill: url(#radial-gradient-17);
      }

      .cls-20 {
        fill: url(#radial-gradient-11);
      }

      .cls-21 {
        fill: url(#radial-gradient-16);
      }

      .cls-22 {
        fill: url(#radial-gradient-15);
      }

      .cls-23 {
        fill: url(#radial-gradient-12);
      }

      .cls-24 {
        fill: url(#radial-gradient-14);
      }

      .cls-25 {
        fill: url(#radial-gradient-13);
      }

      .cls-26 {
        fill: url(#radial-gradient-6);
      }

      .cls-27 {
        fill: url(#radial-gradient-5);
      }

      .cls-28 {
        fill: url(#radial-gradient-3);
      }

      .cls-29 {
        fill: url(#radial-gradient-4);
      }

      .cls-30 {
        fill: url(#radial-gradient-9);
      }

      .cls-31 {
        fill: url(#radial-gradient-8);
      }

      .cls-32 {
        fill: url(#radial-gradient-7);
      }

      .cls-33 {
        fill: url(#radial-gradient-2);
      }

      .cls-34 {
        mix-blend-mode: luminosity;
        opacity: .19;
      }

      .cls-35 {
        fill: url(#linear-gradient-8);
      }

      .cls-36 {
        fill: url(#linear-gradient-9);
      }

      .cls-37 {
        fill: url(#linear-gradient-3);
      }

      .cls-38 {
        fill: url(#linear-gradient-4);
      }

      .cls-39 {
        fill: url(#linear-gradient-2);
      }

      .cls-40 {
        fill: url(#linear-gradient-6);
      }

      .cls-41 {
        fill: url(#linear-gradient-7);
      }

      .cls-42 {
        fill: url(#linear-gradient-5);
      }

      .cls-43 {
        fill: url(#radial-gradient);
      }

      .cls-44 {
        fill: url(#linear-gradient-14);
      }

      .cls-45 {
        fill: url(#linear-gradient-18);
      }

      .cls-46 {
        fill: url(#linear-gradient-22);
      }

      .cls-47 {
        fill: url(#linear-gradient-20);
      }

      .cls-48 {
        fill: url(#linear-gradient-21);
      }

      .cls-49 {
        fill: url(#linear-gradient-23);
      }

      .cls-50 {
        fill: url(#linear-gradient-15);
      }

      .cls-51 {
        fill: url(#linear-gradient-19);
      }

      .cls-52 {
        fill: url(#linear-gradient-16);
      }

      .cls-53 {
        fill: url(#linear-gradient-17);
      }

      .cls-54 {
        fill: url(#linear-gradient-13);
      }

      .cls-55 {
        fill: url(#linear-gradient-12);
      }

      .cls-56 {
        fill: url(#linear-gradient-10);
      }

      .cls-57 {
        fill: url(#linear-gradient-11);
      }

      .cls-58 {
        fill: url(#linear-gradient-27);
      }

      .cls-59 {
        fill: url(#linear-gradient-24);
      }

      .cls-60 {
        fill: url(#linear-gradient-26);
      }

      .cls-61 {
        fill: url(#linear-gradient-38);
      }

      .cls-62 {
        fill: url(#linear-gradient-35);
      }

      .cls-63 {
        fill: url(#linear-gradient-37);
      }

      .cls-64 {
        fill: url(#linear-gradient-34);
      }

      .cls-65 {
        fill: url(#linear-gradient-39);
      }

      .cls-66 {
        fill: url(#linear-gradient-36);
      }

      .cls-67 {
        fill: url(#linear-gradient-25);
      }

      .cls-68 {
        fill: url(#linear-gradient-28);
      }

      .cls-69 {
        fill: url(#linear-gradient-29);
      }

      .cls-70 {
        fill: url(#linear-gradient-33);
      }

      .cls-71 {
        fill: url(#linear-gradient-30);
      }

      .cls-72 {
        fill: url(#linear-gradient-32);
      }

      .cls-73 {
        fill: url(#linear-gradient-31);
      }

      .cls-74 {
        isolation: isolate;
      }
    </style>
    <linearGradient id="linear-gradient" x1="1048.46" y1="464.64" x2="1023.49" y2="377.24" gradientTransform="translate(1105.47 908.13) rotate(-108.58) scale(1 -1)" gradientUnits="userSpaceOnUse">
      <stop offset="0" stop-color="#2c443b"/>
      <stop offset=".05" stop-color="#3a5244"/>
      <stop offset=".17" stop-color="#526a54"/>
      <stop offset=".3" stop-color="#637c60"/>
      <stop offset=".43" stop-color="#6d8667"/>
      <stop offset=".58" stop-color="#718a6a"/>
      <stop offset="1" stop-color="#8a9f79"/>
    </linearGradient>
    <radialGradient id="radial-gradient" cx="1035.96" cy="409.24" fx="1045.59" fy="409.24" r="17.21" gradientTransform="translate(1969.74 616.82) rotate(-108.61) scale(1 -3.23)" gradientUnits="userSpaceOnUse">
      <stop offset=".11" stop-color="#2c443b"/>
      <stop offset=".71" stop-color="#2c443b" stop-opacity="0"/>
    </radialGradient>
    <linearGradient id="linear-gradient-2" x1="1035.59" y1="466.02" x2="1064.45" y2="374.6" gradientTransform="translate(1116.91 892.15) rotate(-110.09) scale(1 -1)" gradientUnits="userSpaceOnUse">
      <stop offset="0" stop-color="#2c443b"/>
      <stop offset=".58" stop-color="#718a6a"/>
      <stop offset="1" stop-color="#8a9f79"/>
    </linearGradient>
    <linearGradient id="linear-gradient-3" x1="1042.75" y1="476.47" x2="1084" y2="380.93" gradientTransform="translate(1116.91 892.15) rotate(-110.09) scale(1 -1)" xlink:href="#linear-gradient"/>
    <radialGradient id="radial-gradient-2" cx="1062.03" cy="428.9" fx="1062.03" fy="428.9" r="14.88" gradientTransform="translate(2524.8 -229.13) rotate(-126.08) scale(1 -4.47)" gradientUnits="userSpaceOnUse">
      <stop offset=".11" stop-color="#2c443b"/>
      <stop offset=".56" stop-color="#2c443b" stop-opacity="0"/>
    </radialGradient>
    <linearGradient id="linear-gradient-4" x1="1088.1" y1="398.62" x2="1052.76" y2="484.53" gradientTransform="translate(1116.91 892.15) rotate(-110.09) scale(1 -1)" gradientUnits="userSpaceOnUse">
      <stop offset="0" stop-color="#718a6a"/>
      <stop offset=".81" stop-color="#395144"/>
      <stop offset="1" stop-color="#2c443b"/>
    </linearGradient>
    <radialGradient id="radial-gradient-3" cx="1070.28" cy="443.92" fx="1059.42" fy="443.92" r="11.44" gradientTransform="translate(2517.18 -173.39) rotate(-124.75) scale(1 -4.32)" gradientUnits="userSpaceOnUse">
      <stop offset=".12" stop-color="#a2b29d"/>
      <stop offset=".19" stop-color="#9eaf99" stop-opacity=".93"/>
      <stop offset=".33" stop-color="#95a78f" stop-opacity=".74"/>
      <stop offset=".52" stop-color="#859a7f" stop-opacity=".42"/>
      <stop offset=".75" stop-color="#718a6a" stop-opacity="0"/>
    </radialGradient>
    <linearGradient id="linear-gradient-5" x1="1056.66" y1="498.75" x2="1097.87" y2="426.31" gradientTransform="translate(1116.91 892.15) rotate(-110.09) scale(1 -1)" gradientUnits="userSpaceOnUse">
      <stop offset="0" stop-color="#2c443b"/>
      <stop offset=".05" stop-color="#3a5244"/>
      <stop offset=".14" stop-color="#526a54"/>
      <stop offset=".25" stop-color="#637c60"/>
      <stop offset=".36" stop-color="#6d8667"/>
      <stop offset=".49" stop-color="#718a6a"/>
      <stop offset=".91" stop-color="#8a9f79"/>
    </linearGradient>
    <linearGradient id="linear-gradient-6" x1="1068.79" y1="480.5" x2="1104.58" y2="480.5" gradientTransform="translate(1116.91 892.15) rotate(-110.09) scale(1 -1)" gradientUnits="userSpaceOnUse">
      <stop offset=".13" stop-color="#2c443b"/>
      <stop offset=".21" stop-color="#3a5244"/>
      <stop offset=".37" stop-color="#526a54"/>
      <stop offset=".54" stop-color="#637c60"/>
      <stop offset=".72" stop-color="#6d8667"/>
      <stop offset=".93" stop-color="#718a6a"/>
    </linearGradient>
    <linearGradient id="linear-gradient-7" x1="1082.99" y1="530.94" x2="1104.06" y2="493.42" gradientTransform="translate(1116.91 892.15) rotate(-110.09) scale(1 -1)" gradientUnits="userSpaceOnUse">
      <stop offset="0" stop-color="#2c443b"/>
      <stop offset=".05" stop-color="#3a5244"/>
      <stop offset=".14" stop-color="#526a54"/>
      <stop offset=".25" stop-color="#637c60"/>
      <stop offset=".36" stop-color="#6d8667"/>
      <stop offset=".49" stop-color="#718a6a"/>
      <stop offset=".83" stop-color="#8a9f79"/>
    </linearGradient>
    <linearGradient id="linear-gradient-8" x1="1077.95" y1="512.76" x2="1100.77" y2="470.31" gradientTransform="translate(1116.91 892.15) rotate(-110.09) scale(1 -1)" gradientUnits="userSpaceOnUse">
      <stop offset="0" stop-color="#2c443b"/>
      <stop offset=".45" stop-color="#4b6350"/>
      <stop offset=".93" stop-color="#718a6a"/>
    </linearGradient>
    <radialGradient id="radial-gradient-4" cx="1088.72" cy="492.31" fx="1088.72" fy="507.48" r="37.67" gradientTransform="translate(-180.78 1053.98) rotate(-53.06) scale(1 -.49)" xlink:href="#radial-gradient-3"/>
    <linearGradient id="linear-gradient-9" x1="955.98" y1="419.84" x2="1030.43" y2="419.84" gradientTransform="translate(1116.91 892.15) rotate(-110.09) scale(1 -1)" gradientUnits="userSpaceOnUse">
      <stop offset=".07" stop-color="#718a6a"/>
      <stop offset=".28" stop-color="#6d8667"/>
      <stop offset=".46" stop-color="#637c60"/>
      <stop offset=".63" stop-color="#526a54"/>
      <stop offset=".79" stop-color="#3a5244"/>
      <stop offset=".87" stop-color="#2c443b"/>
    </linearGradient>
    <linearGradient id="linear-gradient-10" x1="956.96" y1="441.82" x2="1042.97" y2="441.82" xlink:href="#linear-gradient-9"/>
    <linearGradient id="linear-gradient-11" x1="965.19" y1="466.21" x2="1054.33" y2="466.21" gradientTransform="translate(1116.91 892.15) rotate(-110.09) scale(1 -1)" gradientUnits="userSpaceOnUse">
      <stop offset=".09" stop-color="#8a9f79"/>
      <stop offset=".51" stop-color="#718a6a"/>
      <stop offset=".64" stop-color="#6d8667"/>
      <stop offset=".75" stop-color="#637c60"/>
      <stop offset=".86" stop-color="#526a54"/>
      <stop offset=".95" stop-color="#3a5244"/>
      <stop offset="1" stop-color="#2c443b"/>
    </linearGradient>
    <radialGradient id="radial-gradient-5" cx="1010.95" cy="461.43" fx="1010.95" fy="461.43" r="55.56" gradientTransform="translate(929.25 930.99) rotate(-117.96) scale(1 -.29)" xlink:href="#radial-gradient-3"/>
    <linearGradient id="linear-gradient-12" x1="974.98" y1="482.76" x2="1057.66" y2="482.76" xlink:href="#linear-gradient-9"/>
    <linearGradient id="linear-gradient-13" x1="980.24" y1="446.79" x2="1050.36" y2="446.79" gradientTransform="translate(1156.64 798.55) rotate(-117.07) scale(1 -1)" xlink:href="#linear-gradient-11"/>
    <linearGradient id="linear-gradient-14" x1="1006.48" y1="512.04" x2="1067.12" y2="512.04" xlink:href="#linear-gradient-9"/>
    <linearGradient id="linear-gradient-15" x1="1015.93" y1="524.61" x2="1073.07" y2="524.61" xlink:href="#linear-gradient-9"/>
    <linearGradient id="linear-gradient-16" x1="1032.09" y1="540.12" x2="1074.56" y2="540.12" xlink:href="#linear-gradient-9"/>
    <radialGradient id="radial-gradient-6" cx="1046.19" cy="416.71" fx="1046.19" fy="416.71" r="15" gradientTransform="translate(2067.88 544.38) rotate(-110.09) scale(1 -3.43)" gradientUnits="userSpaceOnUse">
      <stop offset=".05" stop-color="#a2b29d"/>
      <stop offset="1" stop-color="#718a6a" stop-opacity="0"/>
    </radialGradient>
    <radialGradient id="radial-gradient-7" cx="1080.41" cy="461.66" fx="1067.78" fy="453.43" r="15.08" gradientTransform="translate(2214.97 -243.97) rotate(-132.55) scale(1 -3.45)" gradientUnits="userSpaceOnUse">
      <stop offset="0" stop-color="#2c443b"/>
      <stop offset=".82" stop-color="#2c443b" stop-opacity="0"/>
    </radialGradient>
    <radialGradient id="radial-gradient-8" cx="1016.38" cy="447.23" fx="1038.23" fy="434.44" r="41.69" gradientTransform="translate(937.56 893.7) rotate(-122.34) scale(1 -.26)" xlink:href="#radial-gradient-2"/>
    <radialGradient id="radial-gradient-9" cx="1039.15" cy="510.29" fx="1039.15" fy="510.29" r="37.33" gradientTransform="translate(787.5 1012.62) rotate(-110.09) scale(1 -.31)" xlink:href="#radial-gradient-2"/>
    <radialGradient id="radial-gradient-10" cx="1044.5" cy="526.2" fx="1044.5" fy="512.54" r="39.03" gradientTransform="translate(682.43 1059.26) rotate(-105.71) scale(1 -.27)" xlink:href="#radial-gradient-2"/>
    <radialGradient id="radial-gradient-11" cx="1090.63" cy="507.44" fx="1090.63" fy="507.44" r="8.43" gradientTransform="translate(2362.83 -1736.36) rotate(-153.67) scale(1 -4.97)" xlink:href="#radial-gradient-2"/>
    <radialGradient id="radial-gradient-12" cx="1086.68" cy="480.5" fx="1086.68" fy="471.2" r="22.61" gradientTransform="translate(1747.68 218.4) rotate(-130.69) scale(1 -2.05)" xlink:href="#radial-gradient-3"/>
    <radialGradient id="radial-gradient-13" cx="993.2" cy="419.78" fx="963.22" fy="419.78" r="46.98" gradientTransform="translate(1210.31 666.1) rotate(-138.38) scale(1 -.31)" xlink:href="#radial-gradient-6"/>
    <radialGradient id="radial-gradient-14" cx="1016.32" cy="482.19" fx="999.31" fy="460.06" r="46.44" gradientTransform="translate(901.32 944.83) rotate(-117.12) scale(1 -.29)" xlink:href="#radial-gradient-2"/>
    <radialGradient id="radial-gradient-15" cx="999.96" cy="441.82" fx="985.13" fy="424.26" r="47.73" gradientTransform="translate(1128.95 753.9) rotate(-132.9) scale(1 -.28)" xlink:href="#radial-gradient-2"/>
    <linearGradient id="linear-gradient-17" x1="-146.41" y1="569.17" x2="-104.88" y2="586.07" gradientTransform="translate(-143.62 636.55) rotate(32.43) scale(1 -1)" gradientUnits="userSpaceOnUse">
      <stop offset="0" stop-color="#8a9f79"/>
      <stop offset=".42" stop-color="#718a6a"/>
      <stop offset=".56" stop-color="#647d61"/>
      <stop offset=".83" stop-color="#435b4a"/>
      <stop offset="1" stop-color="#2c443b"/>
    </linearGradient>
    <linearGradient id="linear-gradient-18" x1="883.02" y1="-349.14" x2="902.05" y2="-273.71" gradientTransform="translate(-29.36 1012.49) rotate(-65.23)" gradientUnits="userSpaceOnUse">
      <stop offset=".07" stop-color="#718a6a"/>
      <stop offset=".27" stop-color="#657e62"/>
      <stop offset=".62" stop-color="#465f4d"/>
      <stop offset=".89" stop-color="#2c443b"/>
    </linearGradient>
    <radialGradient id="radial-gradient-16" cx="890.09" cy="-310.13" fx="890.09" fy="-310.13" r="13.83" gradientTransform="translate(635.86 1319.47) rotate(-65.23) scale(1 3.36)" xlink:href="#radial-gradient-6"/>
    <linearGradient id="linear-gradient-19" x1="1001.99" y1="-211.78" x2="977.02" y2="-299.18" gradientTransform="translate(15.37 1081.21) rotate(-71.68)" xlink:href="#linear-gradient"/>
    <radialGradient id="radial-gradient-17" cx="989.49" cy="-267.18" fx="999.12" fy="-267.18" gradientTransform="translate(579.57 1268.53) rotate(-71.65) scale(1 3.23)" xlink:href="#radial-gradient"/>
    <linearGradient id="linear-gradient-20" x1="971.33" y1="-208.95" x2="1000.18" y2="-300.37" gradientTransform="translate(3.86 1065.29) rotate(-70.17)" xlink:href="#linear-gradient-2"/>
    <linearGradient id="linear-gradient-21" x1="978.49" y1="-198.49" x2="1019.74" y2="-294.03" gradientTransform="translate(3.86 1065.29) rotate(-70.17)" xlink:href="#linear-gradient"/>
    <radialGradient id="radial-gradient-18" cx="997.77" cy="-246.07" fx="997.77" fy="-246.07" r="14.88" gradientTransform="translate(419.07 1496.21) rotate(-54.18) scale(1 4.47)" xlink:href="#radial-gradient-2"/>
    <linearGradient id="linear-gradient-22" x1="1023.84" y1="-276.34" x2="988.5" y2="-190.43" gradientTransform="translate(3.86 1065.29) rotate(-70.17)" xlink:href="#linear-gradient-4"/>
    <radialGradient id="radial-gradient-19" cx="1006.01" cy="-231.04" fx="995.15" fy="-231.04" r="11.44" gradientTransform="translate(380.34 1434.53) rotate(-55.52) scale(1 4.32)" xlink:href="#radial-gradient-3"/>
    <linearGradient id="linear-gradient-23" x1="992.4" y1="-176.22" x2="1033.6" y2="-248.66" gradientTransform="translate(3.86 1065.29) rotate(-70.17)" xlink:href="#linear-gradient-5"/>
    <linearGradient id="linear-gradient-24" x1="1004.53" y1="-194.47" x2="1040.32" y2="-194.47" gradientTransform="translate(3.86 1065.29) rotate(-70.17)" xlink:href="#linear-gradient-6"/>
    <linearGradient id="linear-gradient-25" x1="1018.72" y1="-144.03" x2="1039.8" y2="-181.55" gradientTransform="translate(3.86 1065.29) rotate(-70.17)" xlink:href="#linear-gradient-7"/>
    <linearGradient id="linear-gradient-26" x1="1013.69" y1="-162.2" x2="1036.51" y2="-204.66" gradientTransform="translate(3.86 1065.29) rotate(-70.17)" xlink:href="#linear-gradient-8"/>
    <radialGradient id="radial-gradient-20" cx="1024.46" cy="-182.65" fx="1024.46" fy="-167.49" r="37.67" gradientTransform="translate(870.28 801.43) rotate(-127.2) scale(1 .49)" xlink:href="#radial-gradient-3"/>
    <linearGradient id="linear-gradient-27" x1="902.25" y1="-331.18" x2="947.31" y2="-272.38" gradientTransform="translate(3.86 1065.29) rotate(-70.17)" gradientUnits="userSpaceOnUse">
      <stop offset="0" stop-color="#8a9f79"/>
      <stop offset=".42" stop-color="#718a6a"/>
      <stop offset=".57" stop-color="#6d8667"/>
      <stop offset=".7" stop-color="#637c60"/>
      <stop offset=".83" stop-color="#526a54"/>
      <stop offset=".95" stop-color="#3a5244"/>
      <stop offset="1" stop-color="#2c443b"/>
    </linearGradient>
    <linearGradient id="linear-gradient-28" x1="901.72" y1="-288.8" x2="946.97" y2="-288.8" gradientTransform="translate(3.86 1065.29) rotate(-70.17)" xlink:href="#linear-gradient-9"/>
    <linearGradient id="linear-gradient-29" x1="856.25" y1="-292.5" x2="919.15" y2="-292.5" gradientTransform="translate(-12.22 1037.96) rotate(-67.57)" xlink:href="#linear-gradient-9"/>
    <linearGradient id="linear-gradient-30" x1="891.72" y1="-255.12" x2="966.16" y2="-255.12" gradientTransform="translate(3.86 1065.29) rotate(-70.17)" xlink:href="#linear-gradient-9"/>
    <linearGradient id="linear-gradient-31" x1="892.7" y1="-233.15" x2="978.7" y2="-233.15" gradientTransform="translate(3.86 1065.29) rotate(-70.17)" xlink:href="#linear-gradient-9"/>
    <linearGradient id="linear-gradient-32" x1="900.93" y1="-208.76" x2="990.07" y2="-208.76" gradientTransform="translate(3.86 1065.29) rotate(-70.17)" xlink:href="#linear-gradient-11"/>
    <radialGradient id="radial-gradient-21" cx="946.69" cy="-213.54" fx="946.69" fy="-213.54" r="55.56" gradientTransform="translate(-260.83 969.43) rotate(-62.3) scale(1 .29)" xlink:href="#radial-gradient-3"/>
    <linearGradient id="linear-gradient-33" x1="910.72" y1="-192.2" x2="993.4" y2="-192.2" gradientTransform="translate(3.86 1065.29) rotate(-70.17)" xlink:href="#linear-gradient-9"/>
    <linearGradient id="linear-gradient-34" x1="834.43" y1="-215.37" x2="904.56" y2="-215.37" gradientTransform="translate(-36.29 971.87) rotate(-63.19)" xlink:href="#linear-gradient-11"/>
    <linearGradient id="linear-gradient-35" x1="942.22" y1="-162.93" x2="1002.85" y2="-162.93" gradientTransform="translate(3.86 1065.29) rotate(-70.17)" xlink:href="#linear-gradient-9"/>
    <linearGradient id="linear-gradient-36" x1="951.67" y1="-150.35" x2="1008.81" y2="-150.35" gradientTransform="translate(3.86 1065.29) rotate(-70.17)" xlink:href="#linear-gradient-9"/>
    <linearGradient id="linear-gradient-37" x1="967.83" y1="-134.85" x2="1010.3" y2="-134.85" gradientTransform="translate(3.86 1065.29) rotate(-70.17)" xlink:href="#linear-gradient-9"/>
    <radialGradient id="radial-gradient-22" cx="981.93" cy="-258.26" fx="981.93" fy="-258.26" gradientTransform="translate(594.22 1278.15) rotate(-70.17) scale(1 3.43)" xlink:href="#radial-gradient-6"/>
    <radialGradient id="radial-gradient-23" cx="1016.15" cy="-213.31" fx="1003.51" fy="-221.54" r="15.08" gradientTransform="translate(7.94 1283.39) rotate(-47.71) scale(1 3.45)" xlink:href="#radial-gradient-7"/>
    <radialGradient id="radial-gradient-24" cx="870.57" cy="-214.93" fx="892.42" fy="-227.71" r="41.69" gradientTransform="translate(-250.64 865.17) rotate(-57.92) scale(1 .26)" xlink:href="#radial-gradient-2"/>
    <radialGradient id="radial-gradient-25" cx="974.88" cy="-164.68" fx="974.88" fy="-164.68" r="37.33" gradientTransform="translate(-102.62 1026.9) rotate(-70.17) scale(1 .31)" xlink:href="#radial-gradient-2"/>
    <radialGradient id="radial-gradient-26" cx="980.24" cy="-148.77" fx="980.24" fy="-162.43" r="39.03" gradientTransform="translate(-26.26 1048.15) rotate(-74.55) scale(1 .27)" xlink:href="#radial-gradient-2"/>
    <radialGradient id="radial-gradient-27" cx="1026.37" cy="-167.53" fx="1026.37" fy="-167.53" r="8.43" gradientTransform="translate(-350.39 1247.54) rotate(-26.59) scale(1 4.97)" xlink:href="#radial-gradient-2"/>
    <radialGradient id="radial-gradient-28" cx="1022.42" cy="-194.47" fx="1022.42" fy="-203.77" r="22.61" gradientTransform="translate(-191.98 1074.26) rotate(-49.57) scale(1 2.05)" xlink:href="#radial-gradient-3"/>
    <radialGradient id="radial-gradient-29" cx="928.94" cy="-255.19" fx="898.95" fy="-255.19" r="46.98" gradientTransform="translate(-560.05 783.78) rotate(-41.88) scale(1 .31)" xlink:href="#radial-gradient-6"/>
    <radialGradient id="radial-gradient-30" cx="952.06" cy="-192.78" fx="935.05" fy="-214.91" r="46.44" gradientTransform="translate(-235.45 978.58) rotate(-63.14) scale(1 .29)" xlink:href="#radial-gradient-2"/>
    <radialGradient id="radial-gradient-31" cx="935.7" cy="-233.15" fx="920.86" fy="-250.7" r="47.73" gradientTransform="translate(-484.32 838.13) rotate(-47.36) scale(1 .28)" xlink:href="#radial-gradient-2"/>
    <linearGradient id="linear-gradient-38" x1="891.04" y1="-297.88" x2="879.61" y2="-279.5" gradientTransform="translate(-12.22 1037.96) rotate(-67.57)" gradientUnits="userSpaceOnUse">
      <stop offset=".11" stop-color="#2c443b"/>
      <stop offset=".56" stop-color="#2c443b" stop-opacity="0"/>
    </linearGradient>
    <linearGradient id="linear-gradient-39" x1="919.7" y1="-302.81" x2="939.22" y2="-316.08" gradientTransform="translate(3.86 1065.29) rotate(-70.17)" gradientUnits="userSpaceOnUse">
      <stop offset="0" stop-color="#2c443b"/>
      <stop offset=".25" stop-color="#2c443b" stop-opacity="0"/>
    </linearGradient>
  </defs>
  <g class="cls-74">
    <g id="Layer_2" data-name="Layer 2">
      <g id="OBJECTS">
        <g class="cls-34">
          <path class="cls-1" d="M339.17,73.1c12.71,3.2,25.75-2.47,34.73-6.11,8.98-3.64,51.37-20.98,53.68-21.44s-17.12,.31-49.99,10.12c-22.55,6.73-38.43,17.43-38.43,17.43Z"/>
          <path class="cls-43" d="M339.17,73.1c12.71,3.2,25.75-2.47,34.73-6.11,8.98-3.64,51.37-20.98,53.68-21.44,0,0-16.24,2.9-43.66,12.22-11.12,3.78-44.75,15.33-44.75,15.33"/>
          <path class="cls-39" d="M323.26,70.81c7.78-.04,18.35-.16,28.65-6.11,10.3-5.95,23.5-14.21,38.42-30.58,14.91-16.37,13.23-20.12,13.23-20.12,0,0-27.95,24.54-34.54,30.1-24.79,20.92-45.76,26.72-45.76,26.72Z"/>
          <path class="cls-37" d="M309.37,68.61c6.58,.09,16.27-2.21,23.09-5.95,8.58-4.7,22.24-19.8,32.61-29.83,15.41-14.9,28.57-24.68,28.57-24.68,0,0-18.71,6.84-33.63,19.79-10.29,8.93-27.59,26.93-35.41,31.98-5.69,3.67-15.23,8.69-15.23,8.69Z"/>
          <path class="cls-33" d="M393.65,8.15s-13.16,9.77-28.57,24.68c-10.37,10.03-24.03,25.13-32.61,29.83-6.83,3.74-16.51,6.04-23.09,5.95,0,0,14.13-3.41,27.87-14.53s27.85-27.35,36.17-33.12,20.24-12.81,20.24-12.81Z"/>
          <path class="cls-38" d="M293.1,66.76c1.73-.46,1.85,.19,3.67-.15,8.04-1.51,18.68-3.7,29.63-12.03,13.42-10.21,28.52-23.53,37.88-49.11,0,0-16.84,19.8-25.33,27.98-17.77,17.1-45.85,33.3-45.85,33.3Z"/>
          <path class="cls-28" d="M293.1,66.76s28.08-16.2,45.85-33.3c8.5-8.18,25.33-27.98,25.33-27.98,0,0-12.46,22.99-28.04,36.46-26.82,23.18-43.14,24.82-43.14,24.82Z"/>
          <path class="cls-42" d="M278.61,67.75c8.28-2.09,22.52-6.67,39.08-23.65,7.3-7.48,12.84-14.33,16.88-22.08,5.13-9.83,6.79-19.59,8.17-22.02,0,0-12.93,17.52-24.65,32.41-11.71,14.89-39.49,35.34-39.49,35.34Z"/>
          <path class="cls-40" d="M261.55,66.94c13.35-5.07,24.33-8.24,33.69-17.2,19.05-18.23,24.3-31.6,28.03-43.48,0,0-12.57,16.41-27.5,32.58-14.66,15.87-34.22,28.09-34.22,28.09Z"/>
          <path class="cls-41" d="M248.04,65.97c6.38-1.02,12.75-5.24,17.72-14.18,4.19-7.54,9.73-26.27,2.9-38.79,0,0,3.08,12.01-4.22,23.88-7.3,11.87-7.84,12.82-11.71,23.43-1.5,4.11-4.69,5.66-4.69,5.66Z"/>
          <path class="cls-35" d="M256.46,65.61s11.52-1.85,22-18.37c13.34-21.02,26.91-35.75,26.91-35.75,0,0-9.07,4.44-16.91,11.25-6.76,5.87-12,13.4-19.25,26.94-6.08,11.36-11.24,12.37-15.21,15.89l2.46,.04Z"/>
          <path class="cls-29" d="M305.37,11.49s-13.57,14.73-26.91,35.75c-10.48,16.52-22,18.37-22,18.37l-.8-.14s10.12-4.79,13.17-9.54c3.05-4.75,8.09-13.73,15.88-24.6,7.78-10.87,20.67-19.84,20.67-19.84Z"/>
          <path class="cls-36" d="M410.79,132.48c-4.71-2.03-38.53-27.21-47.52-38.11s-10.98-19.76-10.98-19.76c0,0,11.51,8.16,25.83,21.01,18.01,16.15,32.67,36.86,32.67,36.86Z"/>
          <path class="cls-56" d="M392.24,138.22c-4.42-2.97-22.38-10.98-32.95-25.06-10.57-14.07-22.82-36.74-34.49-41.86,0,0,11.29,2.34,24.63,16.02,13.35,13.68,42.81,50.89,42.81,50.89Z"/>
          <path class="cls-57" d="M363.11,140.11c-7.52-2.88-16.82-9.49-27.58-25.79-10.76-16.3-17.11-30.25-21.89-37.05s-12.24-9.5-12.24-9.5c0,0,10.08,1.32,17.91,8.47s12.08,17.07,20.96,30.51c5.23,7.91,10.47,19.5,15.33,26.52,3.4,4.9,7.51,6.85,7.51,6.85Z"/>
          <path class="cls-27" d="M301.4,67.77s7.45,2.7,12.24,9.5,11.13,20.75,21.89,37.05c10.76,16.3,20.06,22.91,27.58,25.79,0,0-9.91-4.95-18.86-18.41-6.97-10.48-20.59-39.05-26.57-43.95-11.38-9.35-16.28-9.98-16.28-9.98Z"/>
          <path class="cls-55" d="M337.85,138.92c-6.18-1.5-16.54-13.57-20.04-23.13-2.56-7.01-16.5-42.56-26.76-47.78,0,0,7.06-.64,21.44,19.28,9.3,12.87,10.52,25.36,16.57,37.33,2.75,5.45,8.78,14.31,8.78,14.31Z"/>
          <path class="cls-54" d="M314.26,128.2c-3.09-6.53-18.4-22.03-23.39-32.3-9.27-19.11-11.47-28.64-11.47-28.64,0,0,3.08,.07,10.04,10.44,21.63,32.22,24.82,50.5,24.82,50.5Z"/>
          <path class="cls-44" d="M293.42,121.64c-2.05-3.68-8.15-8.81-13.63-18.79-7.68-13.98-9.99-34.34-12.95-36.05,0,0,5.07,2.01,10.01,10.79,5.33,9.47,16.58,44.05,16.58,44.05Z"/>
          <path class="cls-50" d="M274.23,118.58c-17.45-19.03-15.2-49.22-22.09-52.76,0,0,10.64,4.22,15.07,15.7,4.57,11.85,6.11,19.91,6.16,26.42s.86,10.64,.86,10.64Z"/>
          <path class="cls-52" d="M245.97,111.72c5.63-8.82,8.59-16.66,8.84-24.91,.25-8.25-2.63-19.08-7.39-20.84,0,0,3.19,9.14,1.62,15.26-3.36,13.12-3.07,30.49-3.07,30.49Z"/>
          <path class="cls-2" d="M396.65,86.76c-26.49-10.57-54.92-15.22-83.17-18.16-14.31-1.49-28.71-2.6-43.09-3.32s-29.55-2-44.13-.95c-1.2,.09-1.15,1.68,0,1.83,14.24,1.82,28.86,1.43,43.19,2.08s28.13,1.4,42.16,2.83c28.78,2.93,57.01,8.61,84.91,16.16,.31,.08,.42-.36,.13-.47h0Z"/>
          <path class="cls-26" d="M403.56,14s1.68,3.75-13.23,20.12c-14.91,16.37-28.12,24.63-38.42,30.58-10.3,5.95-20.87,6.07-28.65,6.11,0,0,17.44-2.43,30.47-10.38,5.15-3.14,21.9-16.79,30.74-25.21,13.52-12.88,19.09-21.22,19.09-21.22Z"/>
          <path class="cls-32" d="M342.75,0s-12.93,17.52-24.65,32.41c-11.71,14.89-39.49,35.34-39.49,35.34,0,0,15.08-4.51,30.18-19.43,15.1-14.92,23.04-26.19,26.43-33.48,3.39-7.29,7.52-14.84,7.52-14.84Z"/>
          <path class="cls-31" d="M301.24,102.7c5.8,8.2,13.02,25.5,13.02,25.5-3.09-6.53-18.4-22.03-23.39-32.3-9.27-19.11-11.47-28.64-11.47-28.64,0,0,12.29,21.92,21.84,35.43Z"/>
          <path class="cls-30" d="M272.85,73.35c3.47,5.79,6.12,20.68,12.18,32.7,3.26,6.46,8.39,15.59,8.39,15.59-2.05-3.68-8.15-8.81-13.63-18.79-7.68-13.98-9.99-34.34-12.95-36.05,0,0,3.55,2.46,6.01,6.56Z"/>
          <path class="cls-16" d="M261.77,76.46c2.49,4.12,4.59,16.15,6.16,24.03,1.57,7.88,6.3,18.09,6.3,18.09-17.45-19.03-15.2-49.22-22.09-52.76,0,0,4.41,2.03,9.63,10.64Z"/>
          <path class="cls-20" d="M268.65,13.01s3.08,12.01-4.22,23.88c-7.3,11.87-7.84,12.82-11.71,23.43-1.5,4.11-4.69,5.66-4.69,5.66,0,0,8.54-2.51,12.9-11.92,3.3-7.12,7.93-14.22,9.13-22.33,1.9-12.79-1.42-18.72-1.42-18.72Z"/>
          <path class="cls-23" d="M323.27,6.27c-3.73,11.88-8.98,25.25-28.03,43.48-9.37,8.96-20.34,12.13-33.69,17.2,0,0,14.43-4.91,33.67-22.98,19.24-18.07,28.05-37.7,28.05-37.7Z"/>
          <path class="cls-25" d="M378.62,101.64c7.94,8.16,32.18,30.83,32.18,30.83,0,0-14.67-20.71-32.67-36.86-14.33-12.85-25.83-21.01-25.83-21.01,0,0,16.25,16.69,26.33,27.04Z"/>
          <path class="cls-24" d="M305.45,79.79c5.28,6.09,12.67,22.92,16.49,35.61,3.82,12.69,15.91,23.53,15.91,23.53-6.18-1.5-16.54-13.57-20.04-23.13-2.56-7.01-16.5-42.56-26.76-47.78,0,0,5.93,2.02,14.4,11.78Z"/>
          <path class="cls-22" d="M392.24,138.22c-4.42-2.97-22.38-10.98-32.95-25.06-10.57-14.07-22.82-36.74-34.49-41.86,0,0,20.9,12.19,28.75,24.65,16.08,25.55,38.69,42.26,38.69,42.26Z"/>
          <g class="cls-3">
            <path class="cls-53" d="M34.55,78.43c5.38-.42,16.04-1.68,29.81,.5,13.77,2.18,16.25,4.1,16.25,4.1,0,0-9.67,1.91-15.01,1.99-15.47,.21-31.06-6.58-31.06-6.58Z"/>
            <path class="cls-45" d="M102.2,78.03c-8.57,2.5-13.38,3.83-30.14,.29-16.76-3.54-48.42-13.95-48.42-13.95,0,0,33.84,3.58,43.91,4.13,19.83,1.08,34.65,9.53,34.65,9.53Z"/>
            <path class="cls-21" d="M102.2,78.03s-14.82-8.45-34.65-9.53c-10.08-.55-43.91-4.13-43.91-4.13,0,0,28.44,6.13,42.82,8.63,19,3.3,35.74,5.04,35.74,5.04"/>
            <path class="cls-51" d="M121.12,74.23c-12.69,3.26-25.76-2.36-34.76-5.95-8.99-3.6-51.46-20.74-53.78-21.2s17.12,.23,50.03,9.89c22.58,6.63,38.51,17.26,38.51,17.26Z"/>
            <path class="cls-19" d="M121.12,74.23c-12.69,3.26-25.76-2.36-34.76-5.95-8.99-3.6-51.46-20.74-53.78-21.2,0,0,16.26,2.83,43.71,12.02,11.13,3.73,44.82,15.13,44.82,15.13"/>
            <path class="cls-47" d="M137.02,71.87c-7.78,0-18.35-.08-28.68-5.98-10.33-5.9-23.57-14.1-38.56-30.41-14.99-16.31-13.32-20.06-13.32-20.06,0,0,28.06,24.42,34.68,29.94,24.89,20.81,45.88,26.51,45.88,26.51Z"/>
            <path class="cls-48" d="M150.89,69.6c-6.58,.12-16.28-2.14-23.12-5.84-8.6-4.66-22.33-19.7-32.75-29.68-15.47-14.83-28.68-24.55-28.68-24.55,0,0,18.74,6.76,33.72,19.63,10.33,8.88,27.71,26.81,35.56,31.82,5.7,3.64,15.27,8.62,15.27,8.62Z"/>
            <path class="cls-18" d="M66.35,9.53s13.2,9.71,28.68,24.55c10.42,9.98,24.15,25.02,32.75,29.68,6.85,3.71,16.54,5.96,23.12,5.84,0,0-14.14-3.35-27.93-14.4-13.79-11.06-27.98-27.22-36.32-32.95-8.34-5.73-20.29-12.71-20.29-12.71Z"/>
            <path class="cls-46" d="M167.16,67.68c-1.73-.45-1.85,.2-3.67-.13-8.04-1.47-18.7-3.61-29.68-11.89-13.47-10.15-28.63-23.4-38.11-48.93,0,0,16.93,19.73,25.46,27.87,17.84,17.02,46,33.09,46,33.09Z"/>
            <path class="cls-17" d="M167.16,67.68s-28.15-16.07-46-33.09c-8.53-8.14-25.46-27.87-25.46-27.87,0,0,12.56,22.94,28.2,36.33,26.92,23.05,43.25,24.63,43.25,24.63Z"/>
            <path class="cls-49" d="M181.65,68.6c-8.29-2.06-22.55-6.57-39.19-23.47-7.34-7.45-12.9-14.27-16.98-22.01-5.17-9.81-6.88-19.56-8.27-21.98,0,0,13.01,17.46,24.79,32.3s39.65,35.16,39.65,35.16Z"/>
            <path class="cls-59" d="M198.71,67.71c-13.37-5.01-24.36-8.13-33.77-17.05-19.13-18.14-24.44-31.49-28.22-43.35,0,0,12.64,16.35,27.65,32.46,14.73,15.81,34.34,27.94,34.34,27.94Z"/>
            <path class="cls-67" d="M212.21,66.68c-6.39-.99-12.77-5.18-17.78-14.1-4.22-7.52-9.85-26.23-3.07-38.78,0,0-3.02,12.03,4.33,23.86,7.35,11.83,7.9,12.79,11.81,23.37,1.52,4.11,4.71,5.64,4.71,5.64Z"/>
            <path class="cls-60" d="M203.79,66.36s-11.53-1.8-22.09-18.27c-13.43-20.96-27.07-35.62-27.07-35.62,0,0,9.09,4.4,16.96,11.18,6.79,5.84,12.06,13.34,19.37,26.85,6.14,11.33,11.3,12.32,15.29,15.82l-2.46,.05Z"/>
            <path class="cls-4" d="M154.63,12.47s13.64,14.66,27.07,35.62c10.56,16.47,22.09,18.27,22.09,18.27l.8-.15s-10.14-4.74-13.21-9.48-8.16-13.69-15.99-24.52c-7.83-10.83-20.76-19.75-20.76-19.75Z"/>
            <path class="cls-58" d="M61.02,88.47c-9.52,4.29-23.37,8.51-38.16,11.84-7.65,1.72-22.87,2.55-22.87,2.55,0,0,4.47-6.86,17.96-9.72,13.49-2.86,43.06-4.66,43.06-4.66Z"/>
            <path class="cls-68" d="M15.97,111.11c5.63,.29,13.51-3.6,21.09-7.35,7.58-3.75,38.37-19.32,38.37-19.32,0,0-22.3,6.02-33.41,10.39-21.49,8.45-26.06,16.28-26.06,16.28Z"/>
            <path class="cls-69" d="M29.47,128.84c7.06-4.19,21.42-11.96,36.65-26.73,15.23-14.77,16.63-19.33,16.63-19.33,0,0-13.7,6.08-20.41,10.67-19.44,13.29-32.87,35.39-32.87,35.39Z"/>
            <path class="cls-71" d="M49.76,133.93c4.7-2.05,38.41-27.39,47.35-38.32,8.94-10.94,10.89-19.81,10.89-19.81,0,0-11.47,8.21-25.74,21.13-17.93,16.23-32.5,37.01-32.5,37.01Z"/>
            <path class="cls-73" d="M68.34,139.58c4.41-2.99,22.33-11.08,32.84-25.21s22.65-36.84,34.3-42.01c0,0-11.27,2.39-24.56,16.14-13.29,13.74-42.58,51.08-42.58,51.08Z"/>
            <path class="cls-72" d="M97.49,141.35c7.51-2.92,16.78-9.57,27.46-25.92,10.68-16.35,16.97-30.32,21.73-37.15,4.75-6.83,12.19-9.56,12.19-9.56,0,0-10.07,1.37-17.87,8.55-7.8,7.18-12,17.12-20.82,30.6-5.19,7.94-10.38,19.55-15.21,26.59-3.38,4.92-7.48,6.88-7.48,6.88Z"/>
            <path class="cls-5" d="M158.87,68.72s-7.44,2.73-12.19,9.56c-4.75,6.83-11.04,20.8-21.73,37.15-10.68,16.35-19.96,23-27.46,25.92,0,0,9.89-5,18.78-18.5,6.92-10.51,20.41-39.14,26.37-44.07,11.34-9.4,16.24-10.05,16.24-10.05Z"/>
            <path class="cls-70" d="M122.74,140.04c6.17-1.52,16.48-13.64,19.93-23.22,2.53-7.03,16.31-42.64,26.54-47.9,0,0-7.06-.61-21.35,19.37-9.24,12.91-10.41,25.4-16.4,37.4-2.73,5.46-8.71,14.35-8.71,14.35Z"/>
            <path class="cls-64" d="M146.28,129.21c3.06-6.55,18.3-22.11,23.24-32.41,9.19-19.15,11.34-28.69,11.34-28.69,0,0-3.08,.09-9.99,10.48-21.48,32.32-24.59,50.61-24.59,50.61Z"/>
            <path class="cls-62" d="M167.09,122.55c2.03-3.69,8.11-8.85,13.55-18.85,7.61-14.01,9.84-34.38,12.79-36.11,0,0-5.06,2.04-9.96,10.84-5.29,9.5-16.38,44.13-16.38,44.13Z"/>
            <path class="cls-66" d="M186.26,119.41c17.36-19.11,14.98-49.29,21.85-52.86,0,0-10.62,4.27-14.99,15.77-4.51,11.87-6.02,19.94-6.04,26.44-.02,6.51-.81,10.64-.81,10.64Z"/>
            <path class="cls-63" d="M214.49,112.42c-5.67-8.79-8.67-16.62-8.95-24.87-.28-8.25,2.54-19.09,7.29-20.87,0,0-3.14,9.16-1.55,15.27,3.42,13.1,3.21,30.48,3.21,30.48Z"/>
            <path class="cls-2" d="M63.84,88.62c27.86-7.68,56.07-13.49,84.83-16.55,14.03-1.49,28.07-2.31,42.15-3.02,14.33-.71,28.95-.39,43.18-2.28,1.14-.15,1.21-1.75,0-1.83-14.28-.97-28.91,.33-43.18,1.1-14.68,.79-29.39,1.98-44.01,3.57-28.24,3.07-56.64,7.84-83.09,18.53-.29,.12-.18,.56,.13,.47h0Z"/>
            <path class="cls-10" d="M56.46,15.41s-1.67,3.76,13.32,20.06c14.99,16.31,28.23,24.5,38.56,30.41,10.33,5.9,20.89,5.98,28.68,5.98,0,0-17.45-2.35-30.52-10.24-5.16-3.12-21.98-16.69-30.85-25.07-13.58-12.82-19.19-21.14-19.19-21.14Z"/>
            <path class="cls-12" d="M117.21,1.14s13.01,17.46,24.79,32.3,39.65,35.16,39.65,35.16c0,0-15.1-4.44-30.26-19.29-15.16-14.85-23.16-26.09-26.58-33.36-3.42-7.28-7.59-14.8-7.59-14.8Z"/>
            <path class="cls-11" d="M159.18,103.65c-5.76,8.22-12.9,25.56-12.9,25.56,3.06-6.55,18.3-22.11,23.24-32.41,9.19-19.15,11.34-28.69,11.34-28.69,0,0-12.19,21.98-21.68,35.53Z"/>
            <path class="cls-15" d="M187.44,74.18c-3.45,5.81-6.03,20.71-12.03,32.75-3.23,6.47-8.32,15.62-8.32,15.62,2.03-3.69,8.11-8.85,13.55-18.85,7.61-14.01,9.84-34.38,12.79-36.11,0,0-3.54,2.48-5.98,6.59Z"/>
            <path class="cls-8" d="M198.54,77.23c-2.47,4.13-4.52,16.18-6.05,24.06-1.53,7.88-6.22,18.12-6.22,18.12,17.36-19.11,14.98-49.29,21.85-52.86,0,0-4.4,2.05-9.58,10.68Z"/>
            <path class="cls-9" d="M191.36,13.81s-3.02,12.03,4.33,23.86c7.35,11.83,7.9,12.79,11.81,23.37,1.52,4.11,4.71,5.64,4.71,5.64,0,0-8.55-2.47-12.96-11.86-3.34-7.1-7.99-14.19-9.24-22.29-1.96-12.78,1.34-18.73,1.34-18.73Z"/>
            <path class="cls-13" d="M136.72,7.32c3.78,11.86,9.09,25.2,28.22,43.35,9.41,8.92,20.4,12.04,33.77,17.05,0,0-14.45-4.84-33.77-22.82-19.32-17.98-28.23-37.57-28.23-37.57Z"/>
            <path class="cls-14" d="M81.8,102.95c-7.91,8.2-32.04,30.98-32.04,30.98,0,0,14.57-20.78,32.5-37.01,14.27-12.92,25.74-21.13,25.74-21.13,0,0-16.17,16.76-26.2,27.16Z"/>
            <path class="cls-6" d="M154.87,80.76c-5.25,6.11-12.56,22.98-16.33,35.68-3.77,12.7-15.8,23.6-15.8,23.6,6.17-1.52,16.48-13.64,19.93-23.22,2.53-7.03,16.31-42.64,26.54-47.9,0,0-5.92,2.05-14.34,11.85Z"/>
            <path class="cls-7" d="M68.34,139.58c4.41-2.99,22.33-11.08,32.84-25.21s22.65-36.84,34.3-42.01c0,0-20.85,12.28-28.63,24.78-15.96,25.63-38.5,42.43-38.5,42.43Z"/>
            <path class="cls-61" d="M60.06,100.99c-12.95,9.21-30.59,27.85-30.59,27.85,7.06-4.19,21.42-11.96,36.65-26.73,15.23-14.77,16.63-19.33,16.63-19.33l-22.69,18.21Z"/>
            <path class="cls-65" d="M0,102.86s4.47-6.86,17.96-9.72c13.49-2.86,43.06-4.66,43.06-4.66,0,0-34.65,6.91-40.73,8.84-6.08,1.93-20.29,5.55-20.29,5.55Z"/>
          </g>
        </g>
      </g>
    </g>
  </g>
</svg>